<svg preserveAspectRatio="none" width="100%" height="100%" overflow="visible" style="display: block;" viewBox="0 0 242.068 205.002" fill="none" xmlns="http://www.w3.org/2000/svg">
<g id="Group 2505">
<g id="Group 2532">
<path id="Vector 62" d="M21.8906 8.00011C88.9769 66.7592 9.23627 102.249 8.02283 142.426C6.80938 182.603 55.0003 197 55.0003 197" stroke="var(--stroke-0, white)" stroke-width="16" stroke-linecap="round"/>
<g id="Group 2536">
<rect id="Rectangle 713" x="242.068" y="92.173" width="43.3571" height="85.3028" rx="7.98716" transform="rotate(138.79 242.068 92.173)" fill="var(--fill-0, white)"/>
<path id="Subtract" d="M138.006 69.3428C144.574 65.7902 152.726 67.2523 157.649 72.8662L193.68 113.954C197.814 118.668 198.813 125.362 196.237 131.078L180.7 165.548C178.88 169.587 175.466 172.69 171.273 174.118L85.8157 203.229C77.3103 206.126 75.8949 194.794 82.5747 188.784L114.275 160.265C115.821 158.874 118.028 158.613 120.106 158.727C125.806 159.037 130.679 154.668 130.99 148.968C131.3 143.267 126.93 138.394 121.23 138.084C115.53 137.774 110.657 142.143 110.347 147.844C110.202 150.512 109.736 153.383 107.753 155.174L75.9249 183.905C70.155 189.114 60.6935 186.83 63.513 179.586L95.8685 96.458C97.2441 92.9238 99.8306 89.9929 103.166 88.1885L138.006 69.3428Z" fill="var(--fill-0, white)"/>
</g>
</g>
</g>
</svg>
