<svg preserveAspectRatio="none" width="100%" height="100%" overflow="visible" style="display: block;" viewBox="0 0 202.912 201.531" fill="none" xmlns="http://www.w3.org/2000/svg">
<g id="Group 2529">
<g id="Vector 62">
</g>
<g id="Group 2537">
<rect id="Rectangle 713" x="202.912" y="90.1729" width="43.3571" height="85.3028" rx="7.98716" transform="rotate(138.79 202.912 90.1729)" fill="var(--fill-0, white)"/>
<path id="Subtract" d="M98.3047 67.6378C105.192 63.9124 113.74 65.4461 118.902 71.3331L154.194 111.578C158.529 116.522 159.578 123.541 156.876 129.535L141.684 163.24C139.775 167.475 136.194 170.73 131.797 172.228L47.168 201.056C38.5361 203.996 36.9963 192.563 43.7753 186.464L75.1173 158.266C76.6644 156.874 78.8721 156.613 80.9502 156.727C86.6504 157.037 91.5234 152.668 91.834 146.968C92.1444 141.268 87.7745 136.394 82.0742 136.084C76.3739 135.774 71.5018 140.144 71.1914 145.844C71.0462 148.512 70.5809 151.383 68.5972 153.174L37.0834 181.622C31.2198 186.915 21.6581 184.521 24.5234 177.159L56.6094 94.7247C58.0519 91.0185 60.7647 87.945 64.2627 86.0528L98.3047 67.6378Z" fill="var(--fill-0, white)"/>
</g>
</g>
</svg>
