<svg preserveAspectRatio="none" width="100%" height="100%" overflow="visible" style="display: block;" viewBox="0 0 233.912 205.002" fill="none" xmlns="http://www.w3.org/2000/svg">
<g id="Group 2505">
<g id="Group 2532">
<path id="Vector 62" d="M21.8906 8.00011C88.9769 66.7592 9.23627 102.249 8.02283 142.426C6.80938 182.603 55.0003 197 55.0003 197" stroke="var(--stroke-0, white)" stroke-width="16" stroke-linecap="round"/>
<rect id="Rectangle 713" x="233.912" y="92.173" width="43.3571" height="85.3028" rx="7.98716" transform="rotate(138.79 233.912 92.173)" fill="var(--fill-0, white)"/>
<path id="Subtract" d="M129.851 69.3428C136.418 65.7902 144.57 67.2523 149.493 72.8662L185.525 113.954C189.658 118.668 190.658 125.362 188.081 131.078L172.545 165.548C170.725 169.587 167.311 172.69 163.117 174.118L77.6603 203.229C69.1549 206.126 67.7395 194.794 74.4193 188.784L106.119 160.265C107.666 158.874 109.873 158.613 111.95 158.727C117.651 159.037 122.524 154.668 122.834 148.968C123.145 143.267 118.775 138.394 113.074 138.084C107.374 137.774 102.502 142.143 102.192 147.844C102.046 150.512 101.581 153.383 99.5973 155.174L67.7695 183.905C61.9996 189.114 52.5382 186.83 55.3576 179.586L87.7131 96.458C89.0887 92.9238 91.6752 89.9929 95.0109 88.1885L129.851 69.3428Z" fill="var(--fill-0, white)"/>
</g>
</g>
</svg>
