<svg preserveAspectRatio="none" width="100%" height="100%" overflow="visible" style="display: block;" viewBox="0 0 208 208" fill="none" xmlns="http://www.w3.org/2000/svg">
<g id="Group 2503">
<rect id="Rectangle 679" x="4" y="104" width="100" height="100" rx="8" stroke="var(--stroke-0, black)" stroke-width="8"/>
<rect id="Rectangle 681" x="104" y="104" width="100" height="100" rx="8" stroke="var(--stroke-0, black)" stroke-width="8"/>
<rect id="Rectangle 680" x="4" y="4" width="100" height="100" rx="8" stroke="var(--stroke-0, black)" stroke-width="8"/>
<g id="Group 2496">
<path id="Rectangle 682" d="M204 27L181 4H112C107.582 4 104 7.58172 104 12V96C104 100.418 107.582 104 112 104H196C200.418 104 204 100.418 204 96V27ZM181 4V19C181 23.4183 184.582 27 189 27H204" stroke="var(--stroke-0, black)" stroke-width="8"/>
<g id="Group 2495">
<path id="Vector 39" d="M154.497 79V30" stroke="var(--stroke-0, black)" stroke-width="8" stroke-linecap="round" stroke-linejoin="round"/>
<path id="Vector 40" d="M179 54.503L130 54.503" stroke="var(--stroke-0, black)" stroke-width="8" stroke-linecap="round" stroke-linejoin="round"/>
</g>
</g>
</g>
</svg>
