<svg width="67.5" height="67.5" viewBox="53.42 49.88 67.5 67.5" fill="none" xmlns="http://www.w3.org/2000/svg">

<g id="maquette final">

<g id="Desktop - 34">


<g id="Group 2538">
<g id="Frame 2539">
<g id="Group 2483">
<g id="Frame 2541">
<g id="Frame 1004">

<g id="Ellipse 58 [Vectorized]">
<path id="Vector" d="M72.4473 55.6295C76.4241 55.2836 76.3344 58.0347 77.7779 60.8674C77.9934 61.2904 78.1697 61.7599 78.3664 62.1956C79.5572 64.8851 80.8314 67.5368 82.1871 70.147C83.147 72.0341 84.1619 73.857 85.0366 75.7888C85.3474 76.4753 85.6712 78.3967 86.1359 78.7313C86.3566 78.6718 86.3829 78.1475 86.4013 77.9226L87.4353 66.5565C87.6189 64.4327 87.7051 62.1021 88.0762 59.9939C88.2251 59.1483 88.8777 57.6038 89.5051 56.9983C90.8979 55.654 93.3886 57.5101 93.4916 59.1243C93.5324 59.984 93.2493 61.1151 93.1176 62.0176C92.5793 65.7101 91.8247 69.3781 91.1473 73.0463C90.8617 74.5867 90.5357 75.4518 90.4552 77.0815C91.0808 76.7332 91.2927 76.5469 91.69 75.9326C92.7484 74.2871 93.8829 72.6801 95.2151 71.2455C95.598 70.6375 95.7628 70.2128 96.3317 69.7474C96.9962 69.1741 97.2893 68.3426 97.9012 67.6977C99.5864 65.9217 101.293 63.4069 103.531 62.3299C106.041 61.1213 108.481 63.9567 107.791 66.4116C107.218 68.4527 105.796 69.7887 104.549 71.4371C104.254 71.7966 103.981 72.1791 103.688 72.5396C102.41 74.1098 101.349 75.8371 100.272 77.5529C99.3216 79.0663 97.702 80.8348 97.0562 82.4349C100.43 81.8559 103.766 80.9151 107.152 80.3963C109.021 80.11 111.708 79.3961 113.574 79.4593C114.026 79.4781 114.464 79.6151 114.846 79.8566C115.227 80.0988 115.596 80.4395 115.661 80.8989C116.062 83.7294 113.62 83.6091 111.733 84.105C109.42 84.7129 107.213 85.0763 104.912 85.5639C102.129 86.1534 99.4503 86.9428 96.6463 87.4139C96.2905 87.4736 95.7209 87.6327 95.5212 87.946C95.5586 88.0927 95.5093 88.073 95.6546 88.0789C97.7987 88.1672 99.9355 88.4154 102.079 88.4607C102.913 88.4784 103.75 88.465 104.583 88.4938C106.564 88.5615 108.543 88.6851 110.517 88.8646C110.906 88.8968 112.275 88.9686 112.546 89.0622C113.645 89.4416 114.896 90.3875 115.723 91.1828C116.071 92.3093 116.037 93.267 114.967 93.9653C112.885 95.325 110.225 94.1128 108.003 93.6293C103.638 92.6798 99.2982 91.4793 94.9402 90.5145C95.4594 91.3218 96.1488 91.8569 96.8376 92.5248C99.0157 94.6369 101.302 96.6411 103.561 98.666C104.536 99.5411 105.512 100.612 106.512 101.495C107.466 102.353 108.809 103.088 109.374 104.284C109.851 105.296 109.367 106.17 108.391 106.583C107.11 106.147 104.767 103.966 103.534 103.104C102.961 102.703 101.709 102.004 101.281 101.577C100.654 100.952 95.5822 96.3702 95.153 96.2646L95.0968 96.3864C95.1894 97.1927 96.0981 98.2133 96.5514 98.9293C98.291 101.674 100.303 104.25 101.973 107.038C102.26 107.76 102.338 109.273 102.291 109.998C102.185 111.613 99.064 111.558 98.3106 110.678C97.2423 109.43 96.1951 107.67 95.3197 106.294C94.5197 105.056 93.711 103.825 92.8936 102.599C91.1349 100.235 90.1884 97.9042 88.5894 95.6862C88.3837 97.1226 88.3949 98.2524 88.2575 99.6294L87.22 109.981C87.0807 111.324 87.1542 112.891 86.7635 114.218C86.5382 114.907 85.8447 115.267 85.3052 115.614C83.8278 116.564 82.1186 114.491 82.0289 113.078C81.9389 111.659 82.5443 109.804 82.8086 108.339C83.535 104.311 84.6175 100.337 85.0296 96.2511C85.0763 95.7902 85.64 94.3613 85.467 94.011C85.2952 94.0583 85.195 94.1485 85.0904 94.2998C82.4148 98.1676 79.5294 101.864 76.7225 105.632C75.7413 106.969 74.5769 108.182 73.4212 109.371C72.1801 110.648 71.0781 112.311 69.217 110.902C68.387 108.911 70.1566 107.023 71.3208 105.546C73.9031 102.272 76.5996 99.0875 79.1219 95.7625C80.0645 94.5199 81.4633 93.3353 82.1971 91.9953L82.1526 91.9235C81.7972 91.9375 79.5793 93.4892 79.1102 93.7919C74.8336 96.5516 70.6323 99.4536 66.315 102.149C65.9163 102.398 64.2996 102.487 63.772 102.544C63.1026 102.617 62.5126 102.262 62.0528 101.812C61.2754 99.4707 62.993 98.8526 64.5241 97.7199C66.6566 96.1422 68.7277 95.0225 71.0391 93.7424L76.5256 90.6596C77.2621 90.2472 78.0013 89.8386 78.7384 89.4276C79.1159 89.2172 79.6551 88.9226 79.5066 88.4053C78.7658 87.8412 65.9793 87.9376 64.1342 87.7033C63.5779 87.6326 60.3933 87.3892 59.7349 87.4508C57.5991 87.6507 54.6072 86.5537 55.9231 83.9248C56.1682 83.7671 56.4646 83.5744 56.7611 83.5635C57.7656 83.5265 58.7996 83.8259 59.7932 83.8695C63.6495 84.0313 67.5019 84.2769 71.3476 84.6062C72.228 84.6752 73.2223 84.6984 74.1128 84.7753C74.9149 84.8446 79.3288 85.601 79.6618 85.1059C79.4925 84.3298 63.601 74.3391 61.6762 72.4615C57.8352 68.7146 61.8104 65.0351 65.5124 67.8272C65.8999 68.1195 66.4395 68.5324 66.8471 68.8501L70.2932 71.543C72.916 73.5777 75.6154 75.4556 78.2174 77.5119C78.47 77.7116 78.9388 78.0814 79.246 78.0407C79.3206 77.9035 79.3503 77.7679 79.2673 77.6188C76.9681 73.4965 74.7651 69.5714 72.3889 65.465C71.0046 63.0728 68.4173 59.8326 70.1074 56.8713C70.5437 56.1069 71.6186 55.7878 72.4473 55.6295Z" fill="#F6F6FF"/>
</g>
</g>
</g>
</g>
</g>
</g>
</g>
</g>
<defs>
<filter id="filter0_iii_1329_1832" x="-646.581" y="-195.327" width="1440" height="1176.4" filterUnits="userSpaceOnUse" color-interpolation-filters="sRGB">
<feFlood flood-opacity="0" result="BackgroundImageFix"/>
<feBlend mode="normal" in="SourceGraphic" in2="BackgroundImageFix" result="shape"/>
<feColorMatrix in="SourceAlpha" type="matrix" values="0 0 0 0 0 0 0 0 0 0 0 0 0 0 0 0 0 0 127 0" result="hardAlpha"/>
<feOffset dy="-85"/>
<feGaussianBlur stdDeviation="38.1"/>
<feComposite in2="hardAlpha" operator="arithmetic" k2="-1" k3="1"/>
<feColorMatrix type="matrix" values="0 0 0 0 0.67451 0 0 0 0 0.647059 0 0 0 0 0.960784 0 0 0 0.04 0"/>
<feBlend mode="normal" in2="shape" result="effect1_innerShadow_1329_1832"/>
<feColorMatrix in="SourceAlpha" type="matrix" values="0 0 0 0 0 0 0 0 0 0 0 0 0 0 0 0 0 0 127 0" result="hardAlpha"/>
<feOffset dy="85"/>
<feGaussianBlur stdDeviation="38.1"/>
<feComposite in2="hardAlpha" operator="arithmetic" k2="-1" k3="1"/>
<feColorMatrix type="matrix" values="0 0 0 0 0.67451 0 0 0 0 0.647059 0 0 0 0 0.960784 0 0 0 0.04 0"/>
<feBlend mode="normal" in2="effect1_innerShadow_1329_1832" result="effect2_innerShadow_1329_1832"/>
<feColorMatrix in="SourceAlpha" type="matrix" values="0 0 0 0 0 0 0 0 0 0 0 0 0 0 0 0 0 0 127 0" result="hardAlpha"/>
<feOffset/>
<feGaussianBlur stdDeviation="93.45"/>
<feComposite in2="hardAlpha" operator="arithmetic" k2="-1" k3="1"/>
<feColorMatrix type="matrix" values="0 0 0 0 0 0 0 0 0 0 0 0 0 0 0 0 0 0 0.25 0"/>
<feBlend mode="normal" in2="effect2_innerShadow_1329_1832" result="effect3_innerShadow_1329_1832"/>
</filter>
<filter id="filter1_diii_1329_1832" x="-13.1806" y="-4.72732" width="419.2" height="184.7" filterUnits="userSpaceOnUse" color-interpolation-filters="sRGB">
<feFlood flood-opacity="0" result="BackgroundImageFix"/>
<feColorMatrix in="SourceAlpha" type="matrix" values="0 0 0 0 0 0 0 0 0 0 0 0 0 0 0 0 0 0 127 0" result="hardAlpha"/>
<feOffset dy="4"/>
<feGaussianBlur stdDeviation="17.3"/>
<feComposite in2="hardAlpha" operator="out"/>
<feColorMatrix type="matrix" values="0 0 0 0 0.67273 0 0 0 0 0.647189 0 0 0 0 0.961538 0 0 0 0.24 0"/>
<feBlend mode="normal" in2="BackgroundImageFix" result="effect1_dropShadow_1329_1832"/>
<feBlend mode="normal" in="SourceGraphic" in2="effect1_dropShadow_1329_1832" result="shape"/>
<feColorMatrix in="SourceAlpha" type="matrix" values="0 0 0 0 0 0 0 0 0 0 0 0 0 0 0 0 0 0 127 0" result="hardAlpha"/>
<feOffset dy="8"/>
<feGaussianBlur stdDeviation="10.85"/>
<feComposite in2="hardAlpha" operator="arithmetic" k2="-1" k3="1"/>
<feColorMatrix type="matrix" values="0 0 0 0 0.67451 0 0 0 0 0.647059 0 0 0 0 0.960784 0 0 0 0.3 0"/>
<feBlend mode="normal" in2="shape" result="effect2_innerShadow_1329_1832"/>
<feColorMatrix in="SourceAlpha" type="matrix" values="0 0 0 0 0 0 0 0 0 0 0 0 0 0 0 0 0 0 127 0" result="hardAlpha"/>
<feOffset dy="-8"/>
<feGaussianBlur stdDeviation="10.85"/>
<feComposite in2="hardAlpha" operator="arithmetic" k2="-1" k3="1"/>
<feColorMatrix type="matrix" values="0 0 0 0 0.67451 0 0 0 0 0.647059 0 0 0 0 0.960784 0 0 0 0.1 0"/>
<feBlend mode="normal" in2="effect2_innerShadow_1329_1832" result="effect3_innerShadow_1329_1832"/>
<feColorMatrix in="SourceAlpha" type="matrix" values="0 0 0 0 0 0 0 0 0 0 0 0 0 0 0 0 0 0 127 0" result="hardAlpha"/>
<feOffset/>
<feGaussianBlur stdDeviation="42.65"/>
<feComposite in2="hardAlpha" operator="arithmetic" k2="-1" k3="1"/>
<feColorMatrix type="matrix" values="0 0 0 0 0 0 0 0 0 0 0 0 0 0 0 0 0 0 0.22 0"/>
<feBlend mode="normal" in2="effect3_innerShadow_1329_1832" result="effect4_innerShadow_1329_1832"/>
</filter>
<filter id="filter2_d_1329_1832" x="-2.18056" y="-5.72732" width="178.7" height="178.7" filterUnits="userSpaceOnUse" color-interpolation-filters="sRGB">
<feFlood flood-opacity="0" result="BackgroundImageFix"/>
<feColorMatrix in="SourceAlpha" type="matrix" values="0 0 0 0 0 0 0 0 0 0 0 0 0 0 0 0 0 0 127 0" result="hardAlpha"/>
<feOffset/>
<feGaussianBlur stdDeviation="27.8"/>
<feComposite in2="hardAlpha" operator="out"/>
<feColorMatrix type="matrix" values="0 0 0 0 0 0 0 0 0 0 0 0 0 0 0 0 0 0 0.3 0"/>
<feBlend mode="normal" in2="BackgroundImageFix" result="effect1_dropShadow_1329_1832"/>
<feBlend mode="normal" in="SourceGraphic" in2="effect1_dropShadow_1329_1832" result="shape"/>
</filter>
<radialGradient id="paint0_radial_1329_1832" cx="0" cy="0" r="1" gradientUnits="userSpaceOnUse" gradientTransform="translate(720 1975) rotate(-90) scale(1975 2777.34)">
<stop stop-color="#5E51F1"/>
<stop offset="0.242788" stop-color="#7B7989"/>
<stop offset="0.485577" stop-color="#3A3484"/>
<stop offset="1" stop-color="#161616"/>
</radialGradient>
</defs>
</svg>
