<svg width="67.5" height="67.5" viewBox="51.01 48.24 67.5 67.5" fill="none" xmlns="http://www.w3.org/2000/svg">

<g id="maquette final">

<g id="Desktop - 34">


<g id="Group 2538">
<g id="Frame 2539">
<g id="Group 2483">
<g id="Frame 2541">
<g id="Frame 1010">

<g id="Ellipse 57 [Vectorized]">
<path id="Vector" d="M59.0123 70.5887C60.1724 66.3367 62.3616 61.1801 65.481 57.9777C67.9171 55.477 70.2415 55.6015 73.4846 55.6073L77.5415 55.6101C81.8941 55.6094 86.2914 55.578 90.6407 55.6295C92.8485 55.6104 94.7249 55.8156 96.3786 57.4403C98.4414 59.4669 98.8354 64.4213 100.153 67.1548L100.185 67.1944C100.442 67.5094 100.671 67.9533 100.927 68.2335C101.651 69.0268 103.275 70.0872 104.35 70.1601C105.347 70.27 106.208 70.217 107.2 70.2753C108.976 70.3796 110.736 71.0477 111.896 72.4385C113.76 74.6742 113.547 78.217 113.237 80.9653C113.193 81.3721 113.134 81.7772 113.06 82.1797C112.651 84.5785 112.021 86.999 111.33 89.3346C109.685 94.8921 107.992 100.897 104.134 105.371C103.57 106.025 102.057 107.254 101.247 107.538C99.2523 108.505 97.164 108.258 95.0043 108.25L88.4691 108.244L81.9923 108.243C81.1091 108.24 79.1832 108.272 78.3814 108.138C76.073 108.626 73.1337 106.898 72.2557 104.731C71.8419 104.261 70.4604 98.6899 70.0441 97.6565C69.2159 95.6005 68.3479 94.8428 66.3303 93.919C65.7136 93.7228 64.5469 93.6019 63.8968 93.6308C59.0695 93.8449 55.8761 91.8882 55.6804 86.6531C55.171 84.6246 57.2197 76.1024 58.0251 73.9447C58.2029 73.2026 58.7208 71.2672 59.0123 70.5887ZM79.3978 84.1436L79.2696 84.5461L78.426 87.4748C77.5611 90.56 76.7595 92.6012 73.3363 93.478C73.9142 93.5762 75.103 93.5418 75.7266 93.5397C77.1609 93.5252 78.5954 93.5251 80.0298 93.5392C81.0606 93.5371 82.1719 93.5587 83.1539 93.2233C84.6247 92.7211 85.9393 91.699 86.6276 90.2877C87.0481 89.3958 87.6181 87.1518 87.9173 86.1081L90.351 77.6822C90.6461 76.6907 90.9406 75.4129 91.2971 74.4574C92.0776 71.9447 93.5773 71.2429 95.8065 70.319C95.6381 70.2848 94.2192 70.3247 93.914 70.3239L89.8731 70.3082C88.9814 70.3056 87.6328 70.276 86.7859 70.4249C85.9861 70.5731 85.2238 70.8786 84.5431 71.3238C83.6972 71.885 83.0866 72.5678 82.5493 73.4192C82.1866 74.1971 81.9427 75.2311 81.7079 76.0657C80.9499 78.7608 80.118 81.4379 79.3978 84.1436Z" fill="#F6F6FF"/>
<path id="Vector_2" d="M104.35 70.1601C105.347 70.27 106.208 70.217 107.199 70.2753C108.976 70.3796 110.736 71.0477 111.896 72.4385C113.76 74.6742 113.547 78.217 113.237 80.9653C113.193 81.3721 113.134 81.7772 113.06 82.1797C112.65 84.5785 112.021 86.999 111.33 89.3346C109.685 94.8921 107.991 100.897 104.134 105.371C103.57 106.025 102.057 107.254 101.247 107.538C99.2521 108.505 97.1637 108.258 95.0041 108.25L88.4689 108.244L81.9921 108.243C81.1088 108.24 79.183 108.272 78.3812 108.138C76.0727 108.626 73.1335 106.898 72.2555 104.731C71.8416 104.261 70.4601 98.6899 70.0439 97.6565C69.2157 95.6005 68.3477 94.8428 66.3301 93.919C66.799 93.4921 68.5702 93.5968 69.2625 93.5843C70.631 93.5595 71.9665 93.6096 73.3361 93.478C73.914 93.5762 75.1028 93.5418 75.7264 93.5397C77.1607 93.5252 78.5952 93.5251 80.0295 93.5392C81.0603 93.5371 82.1716 93.5587 83.1536 93.2233C84.6244 92.7211 85.9391 91.699 86.6274 90.2877C87.0479 89.3958 87.6178 87.1518 87.9171 86.1081L90.3508 77.6822C90.6459 76.6907 90.9404 75.4129 91.2969 74.4574C92.0773 71.9447 93.5771 71.2429 95.8062 70.319C95.773 70.3078 100.856 70.2559 101.267 70.2505C102.241 70.2639 103.394 70.2884 104.35 70.1601Z" fill="#F6F6FF"/>
<path id="Vector_3" d="M104.35 70.1601C105.347 70.27 106.208 70.217 107.199 70.2753C108.976 70.3796 110.736 71.0477 111.896 72.4385C113.76 74.6742 113.547 78.217 113.237 80.9653C113.193 81.3721 113.134 81.7772 113.06 82.1797L112.921 82.0716L112.901 82.3178C111.204 81.709 110.716 82.2079 109.053 82.1816C104.186 82.105 99.2729 80.2138 95.5461 77.0994C94.4001 76.1417 93.4709 75.0783 92.0801 74.4332C91.876 74.3383 91.9094 74.1232 91.7656 74.0581C91.6334 74.3404 91.6837 74.3449 91.4593 74.4922L91.2969 74.4574C92.0773 71.9447 93.577 71.2429 95.8062 70.319C95.773 70.3078 100.856 70.2559 101.267 70.2505C102.241 70.2639 103.394 70.2884 104.35 70.1601Z" fill="#F6F6FF"/>
<path id="Vector_4" d="M86.6274 90.2877C86.3368 92.369 85.3021 95.0788 84.751 97.1511C84.6621 97.485 84.1366 99.0661 84.1231 99.2988C83.2798 101.941 82.1144 106.399 79.5044 107.68C79.3425 107.759 78.5349 108.116 78.3812 108.138C76.0727 108.626 73.1335 106.898 72.2555 104.731C71.8416 104.261 70.4601 98.6899 70.0439 97.6565C69.2157 95.6005 68.3477 94.8428 66.3301 93.919C66.799 93.4921 68.5702 93.5968 69.2625 93.5843C70.631 93.5595 71.9665 93.6096 73.3361 93.478C73.914 93.5762 75.1028 93.5418 75.7264 93.5397C77.1607 93.5252 78.5952 93.5251 80.0295 93.5392C81.0603 93.5371 82.1716 93.5587 83.1536 93.2233C84.6244 92.7211 85.9391 91.699 86.6274 90.2877Z" fill="#F6F6FF"/>
<path id="Vector_5" d="M66.3301 93.919C66.799 93.4921 68.5702 93.5968 69.2625 93.5843C70.631 93.5595 71.9665 93.6096 73.3361 93.478C73.914 93.5762 75.1028 93.5417 75.7264 93.5397C77.1607 93.5252 78.5952 93.5251 80.0295 93.5392C79.4788 93.6428 78.9202 93.6984 78.3599 93.7053C78.3773 93.9674 78.5027 94.5328 78.4897 94.6612C78.4388 95.0918 78.2781 95.549 78.1894 95.9675C77.7545 98.0183 76.8676 99.5669 75.4946 101.113C74.4882 102.247 73.7107 102.854 72.3873 103.59C71.863 103.881 72.3764 104.56 72.2555 104.731C71.8416 104.261 70.4601 98.6899 70.0439 97.6565C69.2157 95.6005 68.3477 94.8428 66.3301 93.919Z" fill="#F6F6FF"/>
<path id="Vector_6" d="M84.1233 99.2988C84.243 99.8133 83.6732 100.491 84.1068 101.03C84.1316 101.029 84.4624 101.007 84.4554 101.002C85.6051 101.834 86.9684 102.433 88.2469 103.047C90.6142 104.185 93.0762 105.112 95.5756 105.912C97.1667 106.431 98.665 106.972 100.299 107.418C100.357 107.537 100.353 107.536 100.371 107.67C100.626 107.717 100.898 107.535 101.247 107.538C99.2523 108.505 97.1639 108.258 95.0042 108.25L88.469 108.244L81.9923 108.243C81.109 108.24 79.1832 108.272 78.3813 108.138C78.5351 108.116 79.3427 107.759 79.5046 107.68C82.1146 106.399 83.28 101.941 84.1233 99.2988Z" fill="#F6F6FF"/>
<path id="Vector_7" d="M58.0251 73.9447L58.1277 73.9813C58.7595 73.6039 58.9502 73.8294 59.5896 73.7756C64.3992 73.3713 69.2112 72.9428 74.0222 72.5423C76.4478 72.3404 78.8754 72.0238 81.3086 71.9827C81.745 71.9754 82.2079 71.9658 82.5523 72.2482C82.5964 72.346 82.6399 72.427 82.6907 72.5214C82.6174 72.8477 82.5542 73.0809 82.5493 73.4192C82.1866 74.1971 81.9427 75.2311 81.7079 76.0657C80.9499 78.7608 80.118 81.4379 79.3978 84.1436L79.2696 84.5461L78.426 87.4748C77.5611 90.56 76.7595 92.6012 73.3363 93.478C71.9667 93.6096 70.6313 93.5595 69.2628 93.5843C68.5705 93.5968 66.7992 93.4921 66.3303 93.919C65.7136 93.7228 64.5469 93.6019 63.8968 93.6308C59.0695 93.8449 55.8761 91.8882 55.6804 86.6531C55.171 84.6246 57.2197 76.1024 58.0251 73.9447Z" fill="#F6F6FF"/>
<path id="Vector_8" d="M55.7096 86.4796C57.0218 86.207 58.5336 86.1426 59.8874 86.0265L66.7551 85.4458L74.2708 84.7995C75.7046 84.6722 77.7678 84.4406 79.1722 84.4453L79.2693 84.5461L78.4258 87.4748C77.5609 90.56 76.7593 92.6012 73.3361 93.478C71.9665 93.6096 70.631 93.5595 69.2625 93.5843C68.5702 93.5968 66.799 93.4921 66.3301 93.919C65.7134 93.7228 64.5466 93.6019 63.8966 93.6308C59.0692 93.8449 55.8759 91.8882 55.6802 86.6531L55.7096 86.4796Z" fill="#F6F6FF"/>
<path id="Vector_9" d="M55.71 86.4796C55.7208 86.2453 55.6833 86.2046 55.8013 86.0369C56.562 85.6643 58.7617 85.5806 59.68 85.5019L65.7788 84.9879C69.9686 84.6337 74.168 84.256 78.3581 83.8969C78.9616 83.8452 79.0099 83.8012 79.3979 84.1436L79.2697 84.5461L79.1725 84.4453C77.7681 84.4406 75.705 84.6722 74.2711 84.7995L66.7554 85.4458L59.8877 86.0265C58.5339 86.1426 57.0221 86.207 55.71 86.4796Z" fill="#F6F6FF"/>
<path id="Vector_10" d="M90.6407 55.6295C92.8485 55.6104 94.7249 55.8156 96.3786 57.4403C98.4414 59.4669 98.8354 64.4213 100.153 67.1548L100.185 67.1944C100.442 67.5094 100.671 67.9533 100.927 68.2336C101.651 69.0268 103.275 70.0872 104.35 70.1601C103.394 70.2884 102.242 70.2639 101.267 70.2505C100.856 70.2559 95.7733 70.3078 95.8065 70.319C95.6381 70.2848 94.2192 70.3247 93.914 70.3239L89.8731 70.3082C88.9814 70.3056 87.6329 70.276 86.7859 70.4249C85.9861 70.5731 85.2238 70.8786 84.5432 71.3238C83.6973 71.885 83.0866 72.5678 82.5493 73.4192C82.5542 73.0809 82.6174 72.8477 82.6907 72.5214C82.9696 71.4532 83.3177 70.4092 83.5911 69.3389C83.7885 68.9177 84.0875 67.5944 84.291 66.9948C85.4497 63.6323 86.0824 59.4666 88.6646 56.8532C89.4096 56.0992 90.174 56.1604 90.8142 55.7267L90.6407 55.6295Z" fill="#F6F6FF"/>
<path id="Vector_11" d="M100.152 67.1548L100.185 67.1944C100.442 67.5094 100.671 67.9533 100.927 68.2336C101.65 69.0268 103.275 70.0872 104.35 70.1601C103.394 70.2884 102.242 70.2639 101.267 70.2505C100.721 70.1531 97.8192 70.1793 97.061 70.1614C97.805 70.0882 98.4853 70.1515 99.2306 70.1052C99.6641 69.4249 100.135 68.7926 100.552 68.133C100.555 67.9315 100.234 67.5287 100.094 67.2866L100.152 67.1548Z" fill="#F6F6FF"/>
<path id="Vector_12" d="M59.0121 70.5887C59.2434 70.7607 58.5653 71.956 58.6349 72.392C59.197 72.297 59.7298 72.6253 60.1195 72.549C60.7435 72.4267 61.3073 72.312 61.9506 72.2507C66.9078 71.7781 71.874 71.3419 76.8364 70.9223L80.2673 70.6289C80.8921 70.5709 81.5868 70.4841 82.2184 70.4798C82.6958 70.4765 82.6693 70.9784 82.9466 71.126C83.1056 70.8695 83.3377 69.6421 83.5059 69.3336L83.5908 69.3389C83.3175 70.4092 82.9693 71.4532 82.6904 72.5214C82.6397 72.427 82.5962 72.346 82.5521 72.2482C82.2076 71.9658 81.7448 71.9754 81.3084 71.9827C78.8751 72.0238 76.4476 72.3404 74.022 72.5423C69.2109 72.9428 64.3989 73.3713 59.5894 73.7756C58.9499 73.8294 58.7593 73.6039 58.1275 73.9813L58.0249 73.9447C58.2027 73.2026 58.7206 71.2672 59.0121 70.5887Z" fill="#F6F6FF"/>
</g>
</g>
</g>
</g>
</g>
</g>
</g>
</g>
<defs>
<filter id="filter0_iii_1329_1832" x="-648.994" y="-663.455" width="1440" height="1176.4" filterUnits="userSpaceOnUse" color-interpolation-filters="sRGB">
<feFlood flood-opacity="0" result="BackgroundImageFix"/>
<feBlend mode="normal" in="SourceGraphic" in2="BackgroundImageFix" result="shape"/>
<feColorMatrix in="SourceAlpha" type="matrix" values="0 0 0 0 0 0 0 0 0 0 0 0 0 0 0 0 0 0 127 0" result="hardAlpha"/>
<feOffset dy="-85"/>
<feGaussianBlur stdDeviation="38.1"/>
<feComposite in2="hardAlpha" operator="arithmetic" k2="-1" k3="1"/>
<feColorMatrix type="matrix" values="0 0 0 0 0.67451 0 0 0 0 0.647059 0 0 0 0 0.960784 0 0 0 0.04 0"/>
<feBlend mode="normal" in2="shape" result="effect1_innerShadow_1329_1832"/>
<feColorMatrix in="SourceAlpha" type="matrix" values="0 0 0 0 0 0 0 0 0 0 0 0 0 0 0 0 0 0 127 0" result="hardAlpha"/>
<feOffset dy="85"/>
<feGaussianBlur stdDeviation="38.1"/>
<feComposite in2="hardAlpha" operator="arithmetic" k2="-1" k3="1"/>
<feColorMatrix type="matrix" values="0 0 0 0 0.67451 0 0 0 0 0.647059 0 0 0 0 0.960784 0 0 0 0.04 0"/>
<feBlend mode="normal" in2="effect1_innerShadow_1329_1832" result="effect2_innerShadow_1329_1832"/>
<feColorMatrix in="SourceAlpha" type="matrix" values="0 0 0 0 0 0 0 0 0 0 0 0 0 0 0 0 0 0 127 0" result="hardAlpha"/>
<feOffset/>
<feGaussianBlur stdDeviation="93.45"/>
<feComposite in2="hardAlpha" operator="arithmetic" k2="-1" k3="1"/>
<feColorMatrix type="matrix" values="0 0 0 0 0 0 0 0 0 0 0 0 0 0 0 0 0 0 0.25 0"/>
<feBlend mode="normal" in2="effect2_innerShadow_1329_1832" result="effect3_innerShadow_1329_1832"/>
</filter>
<filter id="filter1_diii_1329_1832" x="-15.5937" y="-6.35887" width="419.2" height="184.696" filterUnits="userSpaceOnUse" color-interpolation-filters="sRGB">
<feFlood flood-opacity="0" result="BackgroundImageFix"/>
<feColorMatrix in="SourceAlpha" type="matrix" values="0 0 0 0 0 0 0 0 0 0 0 0 0 0 0 0 0 0 127 0" result="hardAlpha"/>
<feOffset dy="4"/>
<feGaussianBlur stdDeviation="17.3"/>
<feComposite in2="hardAlpha" operator="out"/>
<feColorMatrix type="matrix" values="0 0 0 0 0.67273 0 0 0 0 0.647189 0 0 0 0 0.961538 0 0 0 0.24 0"/>
<feBlend mode="normal" in2="BackgroundImageFix" result="effect1_dropShadow_1329_1832"/>
<feBlend mode="normal" in="SourceGraphic" in2="effect1_dropShadow_1329_1832" result="shape"/>
<feColorMatrix in="SourceAlpha" type="matrix" values="0 0 0 0 0 0 0 0 0 0 0 0 0 0 0 0 0 0 127 0" result="hardAlpha"/>
<feOffset dy="8"/>
<feGaussianBlur stdDeviation="10.85"/>
<feComposite in2="hardAlpha" operator="arithmetic" k2="-1" k3="1"/>
<feColorMatrix type="matrix" values="0 0 0 0 0.67451 0 0 0 0 0.647059 0 0 0 0 0.960784 0 0 0 0.3 0"/>
<feBlend mode="normal" in2="shape" result="effect2_innerShadow_1329_1832"/>
<feColorMatrix in="SourceAlpha" type="matrix" values="0 0 0 0 0 0 0 0 0 0 0 0 0 0 0 0 0 0 127 0" result="hardAlpha"/>
<feOffset dy="-8"/>
<feGaussianBlur stdDeviation="10.85"/>
<feComposite in2="hardAlpha" operator="arithmetic" k2="-1" k3="1"/>
<feColorMatrix type="matrix" values="0 0 0 0 0.67451 0 0 0 0 0.647059 0 0 0 0 0.960784 0 0 0 0.1 0"/>
<feBlend mode="normal" in2="effect2_innerShadow_1329_1832" result="effect3_innerShadow_1329_1832"/>
<feColorMatrix in="SourceAlpha" type="matrix" values="0 0 0 0 0 0 0 0 0 0 0 0 0 0 0 0 0 0 127 0" result="hardAlpha"/>
<feOffset/>
<feGaussianBlur stdDeviation="42.65"/>
<feComposite in2="hardAlpha" operator="arithmetic" k2="-1" k3="1"/>
<feColorMatrix type="matrix" values="0 0 0 0 0 0 0 0 0 0 0 0 0 0 0 0 0 0 0.22 0"/>
<feBlend mode="normal" in2="effect3_innerShadow_1329_1832" result="effect4_innerShadow_1329_1832"/>
</filter>
<filter id="filter2_d_1329_1832" x="-4.59365" y="-7.35887" width="178.696" height="178.696" filterUnits="userSpaceOnUse" color-interpolation-filters="sRGB">
<feFlood flood-opacity="0" result="BackgroundImageFix"/>
<feColorMatrix in="SourceAlpha" type="matrix" values="0 0 0 0 0 0 0 0 0 0 0 0 0 0 0 0 0 0 127 0" result="hardAlpha"/>
<feOffset/>
<feGaussianBlur stdDeviation="27.8"/>
<feComposite in2="hardAlpha" operator="out"/>
<feColorMatrix type="matrix" values="0 0 0 0 0 0 0 0 0 0 0 0 0 0 0 0 0 0 0.3 0"/>
<feBlend mode="normal" in2="BackgroundImageFix" result="effect1_dropShadow_1329_1832"/>
<feBlend mode="normal" in="SourceGraphic" in2="effect1_dropShadow_1329_1832" result="shape"/>
</filter>
<radialGradient id="paint0_radial_1329_1832" cx="0" cy="0" r="1" gradientUnits="userSpaceOnUse" gradientTransform="translate(720 1975) rotate(-90) scale(1975 2777.34)">
<stop stop-color="#5E51F1"/>
<stop offset="0.242788" stop-color="#7B7989"/>
<stop offset="0.485577" stop-color="#3A3484"/>
<stop offset="1" stop-color="#161616"/>
</radialGradient>
</defs>
</svg>
