<svg width="67.5" height="67.5" viewBox="55.61 55.61 67.5 67.5" fill="none" xmlns="http://www.w3.org/2000/svg">

<g id="maquette final">

<g id="Desktop - 34">
<g>


<g id="Group 2538">
<g id="Frame 2539">
<g id="Group 2483">
<g id="Frame 2541">
<g id="Frame 1005">

<g id="Ellipse 57 [Vectorized]">
<g>
<path id="Vector" d="M95.6777 73.0605C96.4208 72.7473 97.0783 71.8678 97.6345 71.6392C98.1714 71.8484 98.9592 73.5509 99.5296 73.5716C101.767 76.4231 103.648 77.9894 106.464 80.2403C110.079 83.1311 113.812 84.8791 118.078 86.6014C118.799 87.2607 119.808 87.4551 120.758 87.6646L120.581 87.8195C120.695 87.9793 120.979 88.1934 121.008 88.2492C121.209 88.6333 121.383 89.3628 121.462 89.7783L121.338 90.055C121.601 90.1714 121.679 90.0623 122.028 90.0713C122.278 90.7792 120.381 90.8918 119.934 90.9226C119.916 91.0084 119.926 91.0081 119.96 91.0912C119.532 91.2265 118.083 91.6767 117.873 92.0287C117.855 92.0404 117.837 92.0521 117.819 92.0639C116.77 92.6439 115.247 93.0913 114.228 93.6045C112.319 94.5653 109.318 96.107 107.668 97.3798C105.737 98.869 103.568 100.72 101.812 102.383C101.189 102.972 98.0564 106.908 97.8237 107.017C97.2319 107.128 96.4118 108.834 96.0708 109.377C95.0816 108.801 91.936 102.878 91.0049 101.699C90.7267 101.209 90.3448 100.692 90.0901 100.193C88.9929 98.0407 87.713 95.8499 86.6591 93.683C85.2827 90.853 84.8251 87.8572 85.2995 84.7507C85.4905 83.4995 86.0328 83.1024 85.5734 81.8506C88.2594 79.0893 91.3757 77.0444 94.1923 74.4551C94.4704 74.1995 94.7878 73.9715 95.0249 73.6794L95.143 73.6538C95.3039 73.5014 95.6104 73.25 95.6777 73.0605Z" fill="#F6F6FF"/>
<path id="Vector_2" d="M82.7274 81.8101C83.6161 81.5713 84.2721 80.8939 85.3281 81.5455C85.4739 81.6354 85.4948 81.7007 85.5734 81.8506C86.0329 83.1023 85.4905 83.4994 85.2995 84.7507C84.8251 87.8572 85.2827 90.853 86.6591 93.683C87.713 95.8498 88.9929 98.0407 90.0902 100.193C90.3448 100.692 90.7267 101.209 91.0049 101.699C91.936 102.878 95.0816 108.801 96.0708 109.377C96.4119 108.834 97.2319 107.128 97.8237 107.017C97.1875 107.763 96.4064 109.113 95.9048 109.95C95.1324 111.24 94.3267 112.644 93.6968 114.01C93.1787 115.133 92.7544 116.363 92.2072 117.477C92.0814 117.589 91.9873 117.688 91.8362 117.762C91.7319 117.724 91.2719 117.5 91.2399 117.497C90.1875 117.405 88.951 118.09 88.1034 118.665C87.8295 118.851 87.8692 119.242 87.4521 119.217C87.3266 119.072 87.2991 119.024 87.207 118.854C87.1234 118.945 87.1128 118.978 86.9728 118.96C85.0036 113.911 82.7128 109.087 79.0905 105.005C78.2396 104.046 77.5083 103.04 76.5928 102.115C75.6706 101.184 74.6313 100.457 73.686 99.5882C74.5273 99.5217 77.7606 103.267 78.4386 103.923C78.4772 103.467 78.0075 103.002 77.8944 102.434C77.0611 98.2487 73.9725 94.3874 75.2139 89.9304C75.6547 88.348 77.3779 85.1439 78.7887 84.3168C79.6423 83.4727 81.0218 82.5702 82.1095 82.1034C82.3473 82.0013 82.4719 81.8349 82.7274 81.8101Z" fill="#F6F6FF"/>
<path id="Vector_3" d="M70.5134 81.4512L70.5782 81.4496C71.4927 81.4173 71.7239 80.1146 72.5874 80.7793C72.7778 80.9258 73.3294 80.9168 73.5755 80.9372C75.6108 81.1055 76.3468 81.8925 76.1921 83.9384C76.8852 83.7299 77.3489 83.7651 78.0727 83.7776C78.3922 83.9743 78.5203 84.0446 78.7887 84.3168C77.3779 85.1439 75.6547 88.348 75.2139 89.9304C73.9725 94.3874 77.0611 98.2487 77.8944 102.434C78.0075 103.002 78.4772 103.467 78.4386 103.923C77.7606 103.267 74.5273 99.5217 73.686 99.5882C72.657 98.7996 71.4998 97.6794 70.4762 97.0095C66.1225 94.1606 61.3495 92.0781 56.3809 90.5892C56.0745 90.4974 55.7922 90.1129 55.6001 89.8416V88.7583C56.1796 87.8686 57.4035 87.4034 58.435 87.3412C59.2585 87.1878 60.5042 86.5314 61.3165 86.2088C64.5775 84.9142 67.5915 83.4286 70.5134 81.4512Z" fill="#F6F6FF"/>
<path id="Vector_4" d="M70.5135 81.4512L70.5783 81.4496C71.4928 81.4173 71.724 80.1146 72.5875 80.7793C72.7779 80.9258 73.3295 80.9168 73.5756 80.9372C75.6109 81.1055 76.3469 81.8925 76.1922 83.9384C75.6527 83.9773 74.5677 84.4019 74.0514 84.6481C72.3611 85.4541 70.7457 86.4443 69.0764 87.313C66.9966 88.5037 65.001 89.5534 62.5529 88.8592C61.6955 88.6161 61.1144 88.6021 60.4311 87.9212C60.4328 87.9229 58.6572 87.4667 58.561 87.465L58.4351 87.3412C59.2586 87.1878 60.5043 86.5314 61.3166 86.2088C64.5776 84.9142 67.5916 83.4286 70.5135 81.4512Z" fill="#F6F6FF"/>
<path id="Vector_5" d="M87.4332 58.5359C87.8347 58.564 87.849 58.7053 88.1661 58.4677C88.4318 58.2686 88.4834 57.9444 88.7302 57.8846L88.9118 57.9489C89.132 57.4868 90.215 57.646 90.5527 57.1697C90.5467 57.0593 90.5501 57.0005 90.5115 56.8946C90.9844 57.1433 90.897 58.6978 91.5418 59.4451C92.2952 61.3145 93.1773 63.2806 93.9806 65.1368C94.3538 65.999 95.0293 67.0434 95.4512 67.9157L95.3343 67.9364C95.1314 67.6978 94.6322 66.8142 94.5386 66.517C93.6719 66.7131 92.9965 68.7103 92.4386 69.4634C91.2346 71.089 90.0765 72.682 88.6509 74.1299C88.2176 74.582 87.858 75.4191 87.4092 75.8931C86.5811 76.8257 85.7025 77.7081 84.9202 78.6866C84.462 79.2618 84.0281 79.8558 83.6194 80.4672C83.4823 80.6756 82.8449 81.69 82.7276 81.8101C82.4721 81.835 82.3475 82.0013 82.1098 82.1034C81.022 82.5702 79.6425 83.4728 78.7889 84.3169C78.5205 84.0447 78.3924 83.9743 78.0729 83.7776C77.3492 83.7652 76.8855 83.7299 76.1924 83.9385C76.3471 81.8925 75.611 81.1055 73.5757 80.9372C73.3296 80.9168 72.778 80.9259 72.5877 80.7793C71.7241 80.1147 71.4929 81.4173 70.5784 81.4496L70.5137 81.4513C72.3191 80.1914 74.0338 78.6362 75.7706 77.2727C76.3524 76.816 76.8885 76.0545 77.5074 75.5665C77.8418 75.5631 77.8725 75.4897 78.167 75.2879L78.19 75.492L78.255 75.537C78.6196 75.3475 79.5923 74.6137 80.0023 74.3107C83.3125 71.8646 87.1281 68.8678 88.6327 64.9095C89.0236 63.8815 88.7206 62.0341 88.4098 60.9784C88.3547 60.7916 87.9227 60.2014 87.8398 59.9797C87.7617 59.771 87.9207 59.3918 87.8235 59.1971L87.7167 59.1815C87.6166 59.3067 87.5657 59.4056 87.4162 59.4407L87.2932 59.283C87.2573 59.0229 87.3494 59.0133 87.5166 58.7203L87.4332 58.5359Z" fill="#F6F6FF"/>
<path id="Vector_6" d="M82.7275 81.8101C82.8448 81.69 83.4823 80.6756 83.6194 80.4672C84.028 79.8558 84.4619 79.2618 84.9201 78.6866C85.7024 77.7081 86.581 76.8257 87.4091 75.8931C87.8579 75.4191 88.2175 74.582 88.6508 74.1299C90.0764 72.6821 91.2345 71.089 92.4385 69.4634C92.9964 68.7103 93.6718 66.7131 94.5385 66.517C94.6321 66.8142 95.1313 67.6978 95.3342 67.9364L95.4511 67.9157C95.6225 68.1451 96.6464 69.7852 96.7481 70.0471L96.6775 70.2032C96.8242 70.5261 97.4196 71.1241 97.3265 71.2584C96.7989 72.0204 96.2751 72.1773 95.6779 73.0605C95.4811 73.0817 95.0447 73.4981 95.0251 73.6794C94.788 73.9715 94.4705 74.1995 94.1925 74.4551C91.3759 77.0444 88.2596 79.0893 85.5735 81.8506C85.4949 81.7008 85.474 81.6354 85.3282 81.5455C84.2722 80.8939 83.6162 81.5713 82.7275 81.8101Z" fill="#F6F6FF"/>
<path id="Vector_7" d="M87.4331 58.5358L87.5165 58.7203C87.3493 59.0132 87.2571 59.0229 87.2931 59.2829L87.4161 59.4406C87.5656 59.4056 87.6165 59.3066 87.7166 59.1815L87.8234 59.197C87.9206 59.3917 87.7616 59.771 87.8397 59.9796C87.9226 60.2014 88.3546 60.7915 88.4097 60.9783C88.7205 62.034 89.0234 63.8815 88.6326 64.9095C87.128 68.8677 83.3124 71.8645 80.0022 74.3106C79.5922 74.6136 78.6195 75.3475 78.2549 75.5369L78.1899 75.4919L78.1669 75.2879C77.8724 75.4897 77.8417 75.563 77.5073 75.5664C77.7209 75.0949 78.5326 74.2338 78.8905 73.789C79.7267 72.7495 80.6396 71.692 81.4413 70.6292C81.8202 70.127 82.3198 69.2434 82.6606 68.672C84.4798 65.5716 86.0011 62.3057 87.204 58.9182L87.4331 58.5358Z" fill="#F6F6FF"/>
<path id="Vector_8" d="M86.9727 118.96C87.1127 118.978 87.1233 118.945 87.2068 118.854C87.2989 119.024 87.3264 119.072 87.4519 119.217C87.869 119.242 87.8293 118.851 88.1033 118.665C88.9509 118.09 90.1874 117.405 91.2397 117.497C91.2718 117.5 91.7317 117.724 91.836 117.762C91.9871 117.688 92.0812 117.589 92.207 117.477C91.9366 118.101 91.7874 118.511 91.564 119.139C91.2204 120.104 90.9434 122.228 90.09 122.805C89.9039 122.892 89.6941 122.977 89.5288 123.096H89.0314C88.0677 122.448 88.0565 122.638 87.6539 121.387C87.4246 120.688 87.1876 119.703 86.9727 118.96Z" fill="#F6F6FF"/>
<path id="Vector_9" d="M88.7522 55.6H89.9701C91.0777 56.779 91.1433 57.8525 91.5418 59.445C90.897 58.6978 90.9844 57.1433 90.5115 56.8946C90.5501 57.0004 90.5467 57.0592 90.5527 57.1697C90.215 57.646 89.132 57.4868 88.9118 57.9488L88.7301 57.8846C88.4834 57.9443 88.4318 58.2685 88.1661 58.4676C87.8489 58.7053 87.8347 58.564 87.4332 58.5359L87.2041 58.9182C87.4033 57.7843 87.6884 56.2063 88.7522 55.6Z" fill="#F6F6FF"/>
<path id="Vector_10" d="M118.078 86.6014C119.795 87.2381 122.073 87.4115 123.096 88.9034V89.5486C122.229 91.2952 120.265 91.0565 118.657 91.7273C118.421 91.826 118.111 91.9522 117.873 92.0286C118.083 91.6766 119.532 91.2264 119.96 91.0912C119.926 91.0081 119.916 91.0083 119.934 90.9226C120.381 90.8918 122.278 90.7792 122.028 90.0712C121.679 90.0623 121.601 90.1714 121.338 90.055L121.462 89.7782C121.383 89.3628 121.209 88.6333 121.008 88.2492C120.979 88.1933 120.695 87.9792 120.581 87.8195L120.758 87.6646C119.808 87.4551 118.799 87.2607 118.078 86.6014Z" fill="#F6F6FF"/>
<path id="Vector_11" d="M95.6777 73.0605C96.2749 72.1773 96.7987 72.0204 97.3264 71.2584C97.4194 71.1241 96.824 70.5261 96.6774 70.2031L96.7479 70.0471C97.2668 70.8382 98.8506 72.8692 99.5296 73.5715C98.9592 73.5509 98.1714 71.8484 97.6345 71.6391C97.0783 71.8678 96.4208 72.7473 95.6777 73.0605Z" fill="#F6F6FF"/>
<path id="Vector_12" d="M95.0249 73.6794C95.0445 73.4981 95.481 73.0816 95.6777 73.0605C95.6104 73.25 95.3039 73.5014 95.143 73.6537L95.0249 73.6794Z" fill="#F6F6FF"/>
</g>
</g>
</g>
</g>
</g>
</g>
</g>
</g>
</g>
</g>
<defs>
<filter id="filter0_iii_1329_1832" x="-1034.4" y="-189.6" width="1440" height="1176.4" filterUnits="userSpaceOnUse" color-interpolation-filters="sRGB">
<feFlood flood-opacity="0" result="BackgroundImageFix"/>
<feBlend mode="normal" in="SourceGraphic" in2="BackgroundImageFix" result="shape"/>
<feColorMatrix in="SourceAlpha" type="matrix" values="0 0 0 0 0 0 0 0 0 0 0 0 0 0 0 0 0 0 127 0" result="hardAlpha"/>
<feOffset dy="-85"/>
<feGaussianBlur stdDeviation="38.1"/>
<feComposite in2="hardAlpha" operator="arithmetic" k2="-1" k3="1"/>
<feColorMatrix type="matrix" values="0 0 0 0 0.67451 0 0 0 0 0.647059 0 0 0 0 0.960784 0 0 0 0.04 0"/>
<feBlend mode="normal" in2="shape" result="effect1_innerShadow_1329_1832"/>
<feColorMatrix in="SourceAlpha" type="matrix" values="0 0 0 0 0 0 0 0 0 0 0 0 0 0 0 0 0 0 127 0" result="hardAlpha"/>
<feOffset dy="85"/>
<feGaussianBlur stdDeviation="38.1"/>
<feComposite in2="hardAlpha" operator="arithmetic" k2="-1" k3="1"/>
<feColorMatrix type="matrix" values="0 0 0 0 0.67451 0 0 0 0 0.647059 0 0 0 0 0.960784 0 0 0 0.04 0"/>
<feBlend mode="normal" in2="effect1_innerShadow_1329_1832" result="effect2_innerShadow_1329_1832"/>
<feColorMatrix in="SourceAlpha" type="matrix" values="0 0 0 0 0 0 0 0 0 0 0 0 0 0 0 0 0 0 127 0" result="hardAlpha"/>
<feOffset/>
<feGaussianBlur stdDeviation="93.45"/>
<feComposite in2="hardAlpha" operator="arithmetic" k2="-1" k3="1"/>
<feColorMatrix type="matrix" values="0 0 0 0 0 0 0 0 0 0 0 0 0 0 0 0 0 0 0.25 0"/>
<feBlend mode="normal" in2="effect2_innerShadow_1329_1832" result="effect3_innerShadow_1329_1832"/>
</filter>
<filter id="filter1_diii_1329_1832" x="-10.9999" y="0.999977" width="419.2" height="184.696" filterUnits="userSpaceOnUse" color-interpolation-filters="sRGB">
<feFlood flood-opacity="0" result="BackgroundImageFix"/>
<feColorMatrix in="SourceAlpha" type="matrix" values="0 0 0 0 0 0 0 0 0 0 0 0 0 0 0 0 0 0 127 0" result="hardAlpha"/>
<feOffset dy="4"/>
<feGaussianBlur stdDeviation="17.3"/>
<feComposite in2="hardAlpha" operator="out"/>
<feColorMatrix type="matrix" values="0 0 0 0 0.67273 0 0 0 0 0.647189 0 0 0 0 0.961538 0 0 0 0.24 0"/>
<feBlend mode="normal" in2="BackgroundImageFix" result="effect1_dropShadow_1329_1832"/>
<feBlend mode="normal" in="SourceGraphic" in2="effect1_dropShadow_1329_1832" result="shape"/>
<feColorMatrix in="SourceAlpha" type="matrix" values="0 0 0 0 0 0 0 0 0 0 0 0 0 0 0 0 0 0 127 0" result="hardAlpha"/>
<feOffset dy="8"/>
<feGaussianBlur stdDeviation="10.85"/>
<feComposite in2="hardAlpha" operator="arithmetic" k2="-1" k3="1"/>
<feColorMatrix type="matrix" values="0 0 0 0 0.67451 0 0 0 0 0.647059 0 0 0 0 0.960784 0 0 0 0.3 0"/>
<feBlend mode="normal" in2="shape" result="effect2_innerShadow_1329_1832"/>
<feColorMatrix in="SourceAlpha" type="matrix" values="0 0 0 0 0 0 0 0 0 0 0 0 0 0 0 0 0 0 127 0" result="hardAlpha"/>
<feOffset dy="-8"/>
<feGaussianBlur stdDeviation="10.85"/>
<feComposite in2="hardAlpha" operator="arithmetic" k2="-1" k3="1"/>
<feColorMatrix type="matrix" values="0 0 0 0 0.67451 0 0 0 0 0.647059 0 0 0 0 0.960784 0 0 0 0.1 0"/>
<feBlend mode="normal" in2="effect2_innerShadow_1329_1832" result="effect3_innerShadow_1329_1832"/>
<feColorMatrix in="SourceAlpha" type="matrix" values="0 0 0 0 0 0 0 0 0 0 0 0 0 0 0 0 0 0 127 0" result="hardAlpha"/>
<feOffset/>
<feGaussianBlur stdDeviation="42.65"/>
<feComposite in2="hardAlpha" operator="arithmetic" k2="-1" k3="1"/>
<feColorMatrix type="matrix" values="0 0 0 0 0 0 0 0 0 0 0 0 0 0 0 0 0 0 0.22 0"/>
<feBlend mode="normal" in2="effect3_innerShadow_1329_1832" result="effect4_innerShadow_1329_1832"/>
</filter>
<filter id="filter2_d_1329_1832" x="9.91821e-05" y="-2.28882e-05" width="178.696" height="178.696" filterUnits="userSpaceOnUse" color-interpolation-filters="sRGB">
<feFlood flood-opacity="0" result="BackgroundImageFix"/>
<feColorMatrix in="SourceAlpha" type="matrix" values="0 0 0 0 0 0 0 0 0 0 0 0 0 0 0 0 0 0 127 0" result="hardAlpha"/>
<feOffset/>
<feGaussianBlur stdDeviation="27.8"/>
<feComposite in2="hardAlpha" operator="out"/>
<feColorMatrix type="matrix" values="0 0 0 0 0 0 0 0 0 0 0 0 0 0 0 0 0 0 0.3 0"/>
<feBlend mode="normal" in2="BackgroundImageFix" result="effect1_dropShadow_1329_1832"/>
<feBlend mode="normal" in="SourceGraphic" in2="effect1_dropShadow_1329_1832" result="shape"/>
</filter>
<radialGradient id="paint0_radial_1329_1832" cx="0" cy="0" r="1" gradientUnits="userSpaceOnUse" gradientTransform="translate(720 1975) rotate(-90) scale(1975 2777.34)">
<stop stop-color="#5E51F1"/>
<stop offset="0.242788" stop-color="#7B7989"/>
<stop offset="0.485577" stop-color="#3A3484"/>
<stop offset="1" stop-color="#161616"/>
</radialGradient>
<clipPath id="clip0_1329_1832">
<rect width="1440" height="1024" fill="white" transform="translate(-1034.4 -113.4)"/>
</clipPath>
<clipPath id="clip1_1329_1832">
<rect width="67.4961" height="67.4961" fill="white" transform="translate(55.6001 55.6)"/>
</clipPath>
</defs>
</svg>
