<svg width="67.5" height="67.5" viewBox="45.10 47.02 67.5 67.5" fill="none" xmlns="http://www.w3.org/2000/svg">

<g id="maquette final">

<g id="Desktop - 34">
<g>


<g id="Group 2538">
<g id="Frame 2539">
<g id="Group 2483">
<g id="Frame 2541">
<g id="Frame 1007">

<g id="Ellipse 57 [Vectorized]">
<path id="Vector" d="M62.2471 57.7926C62.4274 57.6362 62.8161 57.4308 63.0426 57.3087C68.8113 54.1975 76.1898 55.4094 80.5597 60.3372C83.5461 63.705 84.4503 67.7528 84.3113 72.1213C84.2858 73.0025 84.3448 74.0059 84.2789 74.8907C84.2662 75.0632 84.2482 75.2351 84.2249 75.4064C84.772 75.3557 85.3099 75.3736 85.8584 75.3651C89.0651 75.3153 92.9879 75.2607 95.7853 77.1124C97.6661 78.1148 100.094 80.1894 101.037 82.0768C101.578 82.6598 102.641 85.3008 102.782 86.1024C103.369 87.5764 103.235 91.1533 102.917 92.7307C102.726 93.6508 102.439 94.5483 102.061 95.4086C100.592 98.8825 97.7901 101.622 94.2841 103.012C91.4864 104.122 89.7491 103.989 86.825 103.986L80.6406 103.984L75.2101 103.986C74.5655 103.987 73.0597 104.026 72.4743 103.97C68.6362 104.075 64.6352 103.914 60.7868 103.981C59.2599 104.009 57.0973 103.897 55.6325 104.042C55.7415 101.156 55.5964 97.866 55.6538 94.9201C55.5881 93.1089 55.643 91.0071 55.6418 89.1694C55.6397 86.111 55.6156 83.0148 55.6521 79.9599C55.6104 79.4247 55.637 78.4799 55.6368 77.9155L55.6348 74.161C55.6227 70.3688 55.2563 66.6852 57.2131 63.2508C58.3635 61.2317 60.1513 58.8939 62.2471 57.7926Z" fill="#F6F6FF"/>
<path id="Vector_2" d="M62.2471 57.7926C62.4274 57.6362 62.8161 57.4308 63.0426 57.3087C68.8113 54.1975 76.1898 55.4094 80.5597 60.3372C83.5461 63.705 84.4503 67.7528 84.3113 72.1213C84.2858 73.0025 84.3448 74.0059 84.2789 74.8907C84.2662 75.0632 84.2482 75.2351 84.2249 75.4064C84.772 75.3557 85.3099 75.3736 85.8584 75.3651C89.0651 75.3153 92.9879 75.2607 95.7853 77.1124C97.6661 78.1148 100.094 80.1894 101.037 82.0768L100.945 82.1568C101.099 82.4471 101.332 82.7151 101.176 83.0256C97.9013 84.8363 93.298 85.8801 89.5947 86.2619C88.0712 86.4189 86.4969 86.5939 84.9656 86.5999C83.6571 86.605 82.3303 86.4833 81.0277 86.3676C73.2578 85.6775 65.7284 83.1578 59.6287 78.1796C58.9387 77.6165 55.8413 74.8872 55.7882 74.29C55.785 74.2547 55.7819 74.2193 55.7764 74.1843L55.7579 74.0651L55.6348 74.161C55.6227 70.3688 55.2563 66.6852 57.2131 63.2508C58.3635 61.2317 60.1513 58.8939 62.2471 57.7926Z" fill="#F6F6FF"/>
<path id="Vector_3" d="M62.2471 57.7926C62.2236 57.9763 62.2253 57.9985 62.0751 58.1187C61.3919 58.6655 60.6385 59.1227 59.9977 59.7305C58.7821 60.8836 56.6187 63.9609 56.3982 65.6299C56.3819 65.7534 56.3946 65.8665 56.4449 65.9814C56.7374 66.6493 57.2281 67.2548 57.6024 67.8821C58.4136 69.2414 59.0884 70.5844 60.0824 71.8328C64.0791 76.8525 70.0188 80.0044 76.2137 81.4388C78.1851 81.8952 80.2417 82.099 82.2521 82.3245C86.1747 82.7645 94.1902 81.5798 97.6523 79.7528C97.8578 79.6443 98.1369 79.587 98.32 79.4531C98.43 79.3728 98.4595 79.3098 98.4829 79.1781C98.1371 78.7925 97.0239 78.0448 96.5704 77.722C96.3432 77.5603 95.9398 77.388 95.7139 77.1876L95.7853 77.1124C97.6661 78.1148 100.094 80.1894 101.037 82.0768L100.945 82.1568C101.099 82.4471 101.332 82.7151 101.176 83.0256C97.9013 84.8363 93.298 85.8801 89.5947 86.2619C88.0712 86.4189 86.4969 86.5939 84.9656 86.5999C83.6571 86.605 82.3303 86.4833 81.0277 86.3676C73.2578 85.6775 65.7284 83.1578 59.6287 78.1796C58.9387 77.6165 55.8413 74.8872 55.7882 74.29C55.785 74.2547 55.7819 74.2193 55.7764 74.1843L55.7579 74.0651L55.6348 74.161C55.6227 70.3688 55.2563 66.6852 57.2131 63.2508C58.3635 61.2317 60.1513 58.8939 62.2471 57.7926Z" fill="#F6F6FF"/>
<path id="Vector_4" d="M55.6523 79.9599C55.8716 80.2043 55.7842 82.8648 55.7851 83.3504L55.8295 88.3939C55.837 90.3624 55.3422 90.1162 57.2721 90.8691C59.1006 91.5824 60.8743 92.4675 62.7196 93.1804C67.0086 94.829 71.4661 96.0007 76.0114 96.6744C80.2066 97.3158 84.6386 97.3754 88.8644 97.1741C92.8136 96.9858 96.775 96.2792 100.619 95.3972C100.82 95.351 101.635 95.1854 101.785 95.2606C101.795 95.3293 101.808 95.4544 101.835 95.5108C102.858 93.1162 103.16 91.2094 103.004 88.6073C102.964 87.9381 102.931 87.1937 102.747 86.5488C102.698 86.378 102.624 86.1682 102.782 86.1024C103.369 87.5764 103.235 91.1533 102.917 92.7307C102.726 93.6508 102.439 94.5483 102.061 95.4086C100.592 98.8825 97.7903 101.622 94.2842 103.012C91.4866 104.122 89.7492 103.989 86.8252 103.986L80.6407 103.984L75.2103 103.986C74.5656 103.987 73.0599 104.026 72.4745 103.97C68.6363 104.075 64.6354 103.914 60.787 103.981C59.2601 104.009 57.0974 103.897 55.6326 104.042C55.7417 101.156 55.5965 97.866 55.6539 94.9201C55.5882 93.1089 55.6432 91.0071 55.6419 89.1694C55.6399 86.111 55.6157 83.0148 55.6523 79.9599Z" fill="#F6F6FF"/>
<path id="Vector_5" d="M55.6536 94.9201C55.7 95.4527 55.7482 98.5666 55.974 98.7599C56.7614 99.4343 64.8687 101.878 66.3736 102.292C67.0999 102.492 67.8433 102.628 68.568 102.838C69.3346 103.06 70.1964 103.496 70.9809 103.584C70.806 103.716 70.5105 103.736 70.2924 103.74L70.234 103.79C70.9546 103.844 71.7765 103.864 72.4742 103.97C68.636 104.075 64.6351 103.914 60.7867 103.981C59.2598 104.009 57.0971 103.897 55.6323 104.042C55.7413 101.156 55.5962 97.866 55.6536 94.9201Z" fill="#F6F6FF"/>
</g>
</g>
</g>
</g>
</g>
</g>
</g>
</g>
</g>
<defs>
<filter id="filter0_iii_1329_1832" x="-1044.9" y="-353.68" width="1440" height="1176.4" filterUnits="userSpaceOnUse" color-interpolation-filters="sRGB">
<feFlood flood-opacity="0" result="BackgroundImageFix"/>
<feBlend mode="normal" in="SourceGraphic" in2="BackgroundImageFix" result="shape"/>
<feColorMatrix in="SourceAlpha" type="matrix" values="0 0 0 0 0 0 0 0 0 0 0 0 0 0 0 0 0 0 127 0" result="hardAlpha"/>
<feOffset dy="-85"/>
<feGaussianBlur stdDeviation="38.1"/>
<feComposite in2="hardAlpha" operator="arithmetic" k2="-1" k3="1"/>
<feColorMatrix type="matrix" values="0 0 0 0 0.67451 0 0 0 0 0.647059 0 0 0 0 0.960784 0 0 0 0.04 0"/>
<feBlend mode="normal" in2="shape" result="effect1_innerShadow_1329_1832"/>
<feColorMatrix in="SourceAlpha" type="matrix" values="0 0 0 0 0 0 0 0 0 0 0 0 0 0 0 0 0 0 127 0" result="hardAlpha"/>
<feOffset dy="85"/>
<feGaussianBlur stdDeviation="38.1"/>
<feComposite in2="hardAlpha" operator="arithmetic" k2="-1" k3="1"/>
<feColorMatrix type="matrix" values="0 0 0 0 0.67451 0 0 0 0 0.647059 0 0 0 0 0.960784 0 0 0 0.04 0"/>
<feBlend mode="normal" in2="effect1_innerShadow_1329_1832" result="effect2_innerShadow_1329_1832"/>
<feColorMatrix in="SourceAlpha" type="matrix" values="0 0 0 0 0 0 0 0 0 0 0 0 0 0 0 0 0 0 127 0" result="hardAlpha"/>
<feOffset/>
<feGaussianBlur stdDeviation="93.45"/>
<feComposite in2="hardAlpha" operator="arithmetic" k2="-1" k3="1"/>
<feColorMatrix type="matrix" values="0 0 0 0 0 0 0 0 0 0 0 0 0 0 0 0 0 0 0.25 0"/>
<feBlend mode="normal" in2="effect2_innerShadow_1329_1832" result="effect3_innerShadow_1329_1832"/>
</filter>
<filter id="filter1_diii_1329_1832" x="-21.4979" y="-7.58001" width="419.2" height="184.696" filterUnits="userSpaceOnUse" color-interpolation-filters="sRGB">
<feFlood flood-opacity="0" result="BackgroundImageFix"/>
<feColorMatrix in="SourceAlpha" type="matrix" values="0 0 0 0 0 0 0 0 0 0 0 0 0 0 0 0 0 0 127 0" result="hardAlpha"/>
<feOffset dy="4"/>
<feGaussianBlur stdDeviation="17.3"/>
<feComposite in2="hardAlpha" operator="out"/>
<feColorMatrix type="matrix" values="0 0 0 0 0.67273 0 0 0 0 0.647189 0 0 0 0 0.961538 0 0 0 0.24 0"/>
<feBlend mode="normal" in2="BackgroundImageFix" result="effect1_dropShadow_1329_1832"/>
<feBlend mode="normal" in="SourceGraphic" in2="effect1_dropShadow_1329_1832" result="shape"/>
<feColorMatrix in="SourceAlpha" type="matrix" values="0 0 0 0 0 0 0 0 0 0 0 0 0 0 0 0 0 0 127 0" result="hardAlpha"/>
<feOffset dy="8"/>
<feGaussianBlur stdDeviation="10.85"/>
<feComposite in2="hardAlpha" operator="arithmetic" k2="-1" k3="1"/>
<feColorMatrix type="matrix" values="0 0 0 0 0.67451 0 0 0 0 0.647059 0 0 0 0 0.960784 0 0 0 0.3 0"/>
<feBlend mode="normal" in2="shape" result="effect2_innerShadow_1329_1832"/>
<feColorMatrix in="SourceAlpha" type="matrix" values="0 0 0 0 0 0 0 0 0 0 0 0 0 0 0 0 0 0 127 0" result="hardAlpha"/>
<feOffset dy="-8"/>
<feGaussianBlur stdDeviation="10.85"/>
<feComposite in2="hardAlpha" operator="arithmetic" k2="-1" k3="1"/>
<feColorMatrix type="matrix" values="0 0 0 0 0.67451 0 0 0 0 0.647059 0 0 0 0 0.960784 0 0 0 0.1 0"/>
<feBlend mode="normal" in2="effect2_innerShadow_1329_1832" result="effect3_innerShadow_1329_1832"/>
<feColorMatrix in="SourceAlpha" type="matrix" values="0 0 0 0 0 0 0 0 0 0 0 0 0 0 0 0 0 0 127 0" result="hardAlpha"/>
<feOffset/>
<feGaussianBlur stdDeviation="42.65"/>
<feComposite in2="hardAlpha" operator="arithmetic" k2="-1" k3="1"/>
<feColorMatrix type="matrix" values="0 0 0 0 0 0 0 0 0 0 0 0 0 0 0 0 0 0 0.22 0"/>
<feBlend mode="normal" in2="effect3_innerShadow_1329_1832" result="effect4_innerShadow_1329_1832"/>
</filter>
<filter id="filter2_d_1329_1832" x="-10.4979" y="-8.58001" width="178.696" height="178.696" filterUnits="userSpaceOnUse" color-interpolation-filters="sRGB">
<feFlood flood-opacity="0" result="BackgroundImageFix"/>
<feColorMatrix in="SourceAlpha" type="matrix" values="0 0 0 0 0 0 0 0 0 0 0 0 0 0 0 0 0 0 127 0" result="hardAlpha"/>
<feOffset/>
<feGaussianBlur stdDeviation="27.8"/>
<feComposite in2="hardAlpha" operator="out"/>
<feColorMatrix type="matrix" values="0 0 0 0 0 0 0 0 0 0 0 0 0 0 0 0 0 0 0.3 0"/>
<feBlend mode="normal" in2="BackgroundImageFix" result="effect1_dropShadow_1329_1832"/>
<feBlend mode="normal" in="SourceGraphic" in2="effect1_dropShadow_1329_1832" result="shape"/>
</filter>
<radialGradient id="paint0_radial_1329_1832" cx="0" cy="0" r="1" gradientUnits="userSpaceOnUse" gradientTransform="translate(720 1975) rotate(-90) scale(1975 2777.34)">
<stop stop-color="#5E51F1"/>
<stop offset="0.242788" stop-color="#7B7989"/>
<stop offset="0.485577" stop-color="#3A3484"/>
<stop offset="1" stop-color="#161616"/>
</radialGradient>
<clipPath id="clip0_1329_1832">
<rect width="1440" height="1024" fill="white" transform="translate(-1044.9 -277.48)"/>
</clipPath>
</defs>
</svg>
