<svg width="67.5" height="67.5" viewBox="49.56 44.27 67.5 67.5" fill="none" xmlns="http://www.w3.org/2000/svg">

<g id="maquette final">

<g id="Desktop - 34">
<g>


<g id="Group 2538">
<g id="Frame 2539">
<g id="Group 2483">
<g id="Frame 2541">
<g id="Frame 1009">

<g id="Ellipse 57 [Vectorized]">
<path id="Vector" d="M63.5302 55.6C64.2286 55.7442 65.668 55.7183 66.4268 55.7187L71.6853 55.6717C71.6913 57.1597 71.6466 58.6962 71.6549 60.1903C71.659 60.9369 71.6917 63.129 71.5674 63.6872C74.1068 63.6519 77.0768 63.6043 79.6026 63.6394C79.584 65.3482 79.5749 67.057 79.5751 68.7659C79.5746 69.3713 79.6104 70.8966 79.5343 71.4516C79.5892 71.486 86.9997 71.6094 87.5772 71.5139C87.4941 70.983 87.5259 69.463 87.5255 68.8496L87.5302 63.5996C88.118 63.6986 89.6032 63.6736 90.2607 63.6747L95.4968 63.6638C95.3974 62.9863 95.4369 60.5143 95.4357 59.7145C95.4345 58.8914 95.3797 56.4057 95.4858 55.7222C96.0468 55.6556 97.7341 55.7098 98.3557 55.7124C100.109 55.7229 101.862 55.7059 103.615 55.6613C103.58 57.8346 103.6 60.0431 103.59 62.2212C103.609 64.5391 103.695 67.7941 103.585 70.0645C103.686 73.0588 103.597 76.4557 103.602 79.4809L103.606 84.7463C103.606 85.2551 103.634 86.897 103.568 87.3286L108.737 87.321C109.458 87.3195 110.875 87.3524 111.541 87.276C111.516 88.9776 111.508 90.6794 111.517 92.3812C111.518 93.229 111.481 94.6279 111.556 95.43C104.8 95.1938 97.9138 95.4962 91.1482 95.3748C89.9693 95.3538 88.7095 95.3794 87.5331 95.4534C87.5294 92.8604 87.6044 89.9505 87.5482 87.3938L79.5769 87.4202C79.5384 87.7689 79.5932 89.6058 79.5997 90.0594C79.6246 91.8203 79.5628 93.6842 79.6369 95.4311C73.5726 95.264 67.4533 95.4332 61.3831 95.3733C59.4887 95.3546 57.5035 95.3417 55.6154 95.4524L55.6001 87.2785C56.3232 87.3566 57.6616 87.3224 58.4358 87.3227L63.5402 87.3309C63.5172 84.7243 63.5116 82.1177 63.5234 79.5111L63.5244 71.5271L63.5231 63.6583C63.5176 61.0257 63.4654 58.2206 63.5302 55.6ZM87.6233 87.1994C87.688 87.2905 87.7086 87.3506 87.84 87.3524C90.3612 87.386 93.005 87.2098 95.519 87.3498C95.416 86.9086 95.444 85.1714 95.4436 84.6058C95.4364 82.9136 95.4417 81.2213 95.4594 79.5292C93.893 79.6324 92.2073 79.5228 90.6279 79.5672C89.6596 79.5943 88.5849 79.5896 87.6231 79.5301C87.7525 80.3459 87.7544 86.3739 87.6233 87.1994ZM71.638 87.2547C71.6729 87.275 71.7379 87.3261 71.7743 87.3342C71.9876 87.3815 79.079 87.3605 79.5109 87.3079C79.3747 86.477 79.4359 84.1758 79.4365 83.2496C79.4372 82.2192 79.3726 80.5159 79.4436 79.5302C77.6499 79.6207 75.7866 79.5162 73.986 79.568C73.2104 79.5903 72.3846 79.5874 71.611 79.5397C71.7396 80.3808 71.6826 82.609 71.6745 83.5819C71.6666 84.5257 71.715 86.3865 71.638 87.2547Z" fill="#F6F6FF"/>
<path id="Vector_2" d="M63.5234 79.5111C66.1707 79.6057 68.9507 79.4466 71.611 79.5397C71.7396 80.3808 71.6826 82.609 71.6745 83.5819C71.6666 84.5257 71.715 86.3865 71.638 87.2547C71.6729 87.2751 71.7379 87.3261 71.7743 87.3342C71.9876 87.3815 79.079 87.3605 79.5109 87.3079L79.5769 87.4202C79.5384 87.7689 79.5932 89.6058 79.5997 90.0594C79.6246 91.8203 79.5628 93.6842 79.6369 95.4311C73.5726 95.264 67.4533 95.4332 61.3831 95.3733C59.4887 95.3546 57.5035 95.3418 55.6154 95.4524L55.6001 87.2785C56.3232 87.3567 57.6616 87.3224 58.4358 87.3227L63.5402 87.3309C63.5172 84.7244 63.5116 82.1177 63.5234 79.5111Z" fill="#F6F6FF"/>
<path id="Vector_3" d="M63.5236 79.5111C66.1709 79.6057 68.9509 79.4466 71.6112 79.5397C71.7398 80.3808 71.6828 82.609 71.6747 83.5819C71.6668 84.5257 71.7152 86.3865 71.6382 87.2547C71.4013 87.3897 64.3558 87.3808 63.5404 87.3309C63.5174 84.7244 63.5118 82.1177 63.5236 79.5111Z" fill="#F6F6FF"/>
<path id="Vector_4" d="M87.5485 87.3938L87.6235 87.1994C87.6882 87.2905 87.7088 87.3506 87.8403 87.3524C90.3615 87.386 93.0053 87.2098 95.5193 87.3498C96.211 87.3009 97.4226 87.339 98.1522 87.3407C99.9576 87.3539 101.763 87.3499 103.568 87.3286L108.738 87.321C109.458 87.3195 110.875 87.3524 111.542 87.276C111.516 88.9776 111.508 90.6794 111.518 92.3812C111.518 93.229 111.482 94.6279 111.556 95.43C104.8 95.1938 97.9141 95.4962 91.1484 95.3748C89.9696 95.3537 88.7098 95.3794 87.5333 95.4533C87.5296 92.8604 87.6047 89.9505 87.5485 87.3938Z" fill="#F6F6FF"/>
<path id="Vector_5" d="M95.4969 63.6638C95.3976 62.9863 95.4371 60.5143 95.4359 59.7145C95.4347 58.8914 95.3799 56.4057 95.486 55.7222C96.047 55.6556 97.7343 55.7098 98.3559 55.7124C100.109 55.7229 101.863 55.7059 103.615 55.6613C103.581 57.8346 103.6 60.0431 103.59 62.2212C103.609 64.5391 103.695 67.7941 103.585 70.0645C103.491 70.2764 103.539 71.2812 103.543 71.5947C102.661 71.4949 100.228 71.5578 99.2523 71.5583L90.5714 71.5642C90.1095 71.5634 87.8733 71.6021 87.5774 71.5139C87.4942 70.983 87.5261 69.463 87.5257 68.8496L87.5304 63.5996C88.1182 63.6986 89.6034 63.6736 90.2609 63.6747L95.4969 63.6638Z" fill="#F6F6FF"/>
<path id="Vector_6" d="M95.4967 63.6638C95.3973 62.9863 95.4368 60.5143 95.4356 59.7145C95.4344 58.8914 95.3796 56.4057 95.4857 55.7222C96.0467 55.6556 97.734 55.7098 98.3556 55.7124C100.109 55.7229 101.862 55.7059 103.615 55.6613C103.58 57.8346 103.6 60.0431 103.59 62.2212C103.484 62.4061 103.529 63.4042 103.527 63.7168C102.634 63.7172 95.8762 63.8017 95.4967 63.6638Z" fill="#F6F6FF"/>
<path id="Vector_7" d="M63.5302 55.6C64.2286 55.7442 65.668 55.7183 66.4269 55.7187L71.6854 55.6717C71.6914 57.1597 71.6466 58.6962 71.6549 60.1903C71.6591 60.9369 71.6917 63.129 71.5675 63.6872C74.1068 63.6519 77.0769 63.6043 79.6027 63.6394C79.5841 65.3482 79.5749 67.057 79.5751 68.7659C79.5746 69.3713 79.6104 70.8966 79.5344 71.4516C79.3561 71.5715 79.1006 71.551 78.8614 71.5516C73.7691 71.5666 68.671 71.5926 63.5804 71.5394C63.5618 71.5353 63.5431 71.5312 63.5245 71.5271L63.5231 63.6583C63.5176 61.0257 63.4654 58.2206 63.5302 55.6Z" fill="#F6F6FF"/>
<path id="Vector_8" d="M63.5302 55.6C64.2286 55.7442 65.668 55.7183 66.4269 55.7187L71.6854 55.6717C71.6914 57.1597 71.6466 58.6962 71.6549 60.1903C71.6591 60.9369 71.6917 63.129 71.5675 63.6872C71.1796 63.6525 70.1408 63.7081 69.689 63.7116L65.3851 63.7276C64.9585 63.7284 63.8907 63.7605 63.5231 63.6583C63.5176 61.0257 63.4654 58.2206 63.5302 55.6Z" fill="#F6F6FF"/>
<path id="Vector_9" d="M79.4435 79.5302L87.623 79.5301C87.7524 80.3459 87.7543 86.3739 87.6232 87.1994L87.5481 87.3938L79.5768 87.4202L79.5108 87.3079C79.3746 86.477 79.4358 84.1758 79.4364 83.2496C79.4371 82.2192 79.3725 80.5159 79.4435 79.5302Z" fill="#F6F6FF"/>
<path id="Vector_10" d="M95.4594 79.5291C96.3014 79.5221 103.446 79.5679 103.602 79.4809L103.606 84.7463C103.606 85.2551 103.634 86.897 103.568 87.3286C101.763 87.3499 99.9573 87.3539 98.152 87.3407C97.4224 87.339 96.2108 87.3009 95.5191 87.3498C95.416 86.9086 95.444 85.1714 95.4436 84.6058C95.4365 82.9136 95.4417 81.2213 95.4594 79.5291Z" fill="#F6F6FF"/>
</g>
</g>
</g>
</g>
</g>
</g>
</g>
</g>
</g>
<defs>
<filter id="filter0_iii_1329_1832" x="-1040.44" y="-511.921" width="1440" height="1176.4" filterUnits="userSpaceOnUse" color-interpolation-filters="sRGB">
<feFlood flood-opacity="0" result="BackgroundImageFix"/>
<feBlend mode="normal" in="SourceGraphic" in2="BackgroundImageFix" result="shape"/>
<feColorMatrix in="SourceAlpha" type="matrix" values="0 0 0 0 0 0 0 0 0 0 0 0 0 0 0 0 0 0 127 0" result="hardAlpha"/>
<feOffset dy="-85"/>
<feGaussianBlur stdDeviation="38.1"/>
<feComposite in2="hardAlpha" operator="arithmetic" k2="-1" k3="1"/>
<feColorMatrix type="matrix" values="0 0 0 0 0.67451 0 0 0 0 0.647059 0 0 0 0 0.960784 0 0 0 0.04 0"/>
<feBlend mode="normal" in2="shape" result="effect1_innerShadow_1329_1832"/>
<feColorMatrix in="SourceAlpha" type="matrix" values="0 0 0 0 0 0 0 0 0 0 0 0 0 0 0 0 0 0 127 0" result="hardAlpha"/>
<feOffset dy="85"/>
<feGaussianBlur stdDeviation="38.1"/>
<feComposite in2="hardAlpha" operator="arithmetic" k2="-1" k3="1"/>
<feColorMatrix type="matrix" values="0 0 0 0 0.67451 0 0 0 0 0.647059 0 0 0 0 0.960784 0 0 0 0.04 0"/>
<feBlend mode="normal" in2="effect1_innerShadow_1329_1832" result="effect2_innerShadow_1329_1832"/>
<feColorMatrix in="SourceAlpha" type="matrix" values="0 0 0 0 0 0 0 0 0 0 0 0 0 0 0 0 0 0 127 0" result="hardAlpha"/>
<feOffset/>
<feGaussianBlur stdDeviation="93.45"/>
<feComposite in2="hardAlpha" operator="arithmetic" k2="-1" k3="1"/>
<feColorMatrix type="matrix" values="0 0 0 0 0 0 0 0 0 0 0 0 0 0 0 0 0 0 0.25 0"/>
<feBlend mode="normal" in2="effect2_innerShadow_1329_1832" result="effect3_innerShadow_1329_1832"/>
</filter>
<filter id="filter1_diii_1329_1832" x="-17.039" y="-10.3248" width="419.2" height="184.7" filterUnits="userSpaceOnUse" color-interpolation-filters="sRGB">
<feFlood flood-opacity="0" result="BackgroundImageFix"/>
<feColorMatrix in="SourceAlpha" type="matrix" values="0 0 0 0 0 0 0 0 0 0 0 0 0 0 0 0 0 0 127 0" result="hardAlpha"/>
<feOffset dy="4"/>
<feGaussianBlur stdDeviation="17.3"/>
<feComposite in2="hardAlpha" operator="out"/>
<feColorMatrix type="matrix" values="0 0 0 0 0.67273 0 0 0 0 0.647189 0 0 0 0 0.961538 0 0 0 0.24 0"/>
<feBlend mode="normal" in2="BackgroundImageFix" result="effect1_dropShadow_1329_1832"/>
<feBlend mode="normal" in="SourceGraphic" in2="effect1_dropShadow_1329_1832" result="shape"/>
<feColorMatrix in="SourceAlpha" type="matrix" values="0 0 0 0 0 0 0 0 0 0 0 0 0 0 0 0 0 0 127 0" result="hardAlpha"/>
<feOffset dy="8"/>
<feGaussianBlur stdDeviation="10.85"/>
<feComposite in2="hardAlpha" operator="arithmetic" k2="-1" k3="1"/>
<feColorMatrix type="matrix" values="0 0 0 0 0.67451 0 0 0 0 0.647059 0 0 0 0 0.960784 0 0 0 0.3 0"/>
<feBlend mode="normal" in2="shape" result="effect2_innerShadow_1329_1832"/>
<feColorMatrix in="SourceAlpha" type="matrix" values="0 0 0 0 0 0 0 0 0 0 0 0 0 0 0 0 0 0 127 0" result="hardAlpha"/>
<feOffset dy="-8"/>
<feGaussianBlur stdDeviation="10.85"/>
<feComposite in2="hardAlpha" operator="arithmetic" k2="-1" k3="1"/>
<feColorMatrix type="matrix" values="0 0 0 0 0.67451 0 0 0 0 0.647059 0 0 0 0 0.960784 0 0 0 0.1 0"/>
<feBlend mode="normal" in2="effect2_innerShadow_1329_1832" result="effect3_innerShadow_1329_1832"/>
<feColorMatrix in="SourceAlpha" type="matrix" values="0 0 0 0 0 0 0 0 0 0 0 0 0 0 0 0 0 0 127 0" result="hardAlpha"/>
<feOffset/>
<feGaussianBlur stdDeviation="42.65"/>
<feComposite in2="hardAlpha" operator="arithmetic" k2="-1" k3="1"/>
<feColorMatrix type="matrix" values="0 0 0 0 0 0 0 0 0 0 0 0 0 0 0 0 0 0 0.22 0"/>
<feBlend mode="normal" in2="effect3_innerShadow_1329_1832" result="effect4_innerShadow_1329_1832"/>
</filter>
<filter id="filter2_d_1329_1832" x="-6.03896" y="-11.3248" width="178.7" height="178.7" filterUnits="userSpaceOnUse" color-interpolation-filters="sRGB">
<feFlood flood-opacity="0" result="BackgroundImageFix"/>
<feColorMatrix in="SourceAlpha" type="matrix" values="0 0 0 0 0 0 0 0 0 0 0 0 0 0 0 0 0 0 127 0" result="hardAlpha"/>
<feOffset/>
<feGaussianBlur stdDeviation="27.8"/>
<feComposite in2="hardAlpha" operator="out"/>
<feColorMatrix type="matrix" values="0 0 0 0 0 0 0 0 0 0 0 0 0 0 0 0 0 0 0.3 0"/>
<feBlend mode="normal" in2="BackgroundImageFix" result="effect1_dropShadow_1329_1832"/>
<feBlend mode="normal" in="SourceGraphic" in2="effect1_dropShadow_1329_1832" result="shape"/>
</filter>
<radialGradient id="paint0_radial_1329_1832" cx="0" cy="0" r="1" gradientUnits="userSpaceOnUse" gradientTransform="translate(720 1975) rotate(-90) scale(1975 2777.34)">
<stop stop-color="#5E51F1"/>
<stop offset="0.242788" stop-color="#7B7989"/>
<stop offset="0.485577" stop-color="#3A3484"/>
<stop offset="1" stop-color="#161616"/>
</radialGradient>
<clipPath id="clip0_1329_1832">
<rect width="1440" height="1024" fill="white" transform="translate(-1040.44 -435.721)"/>
</clipPath>
</defs>
</svg>
