<svg width="1359.08" height="1337.08" viewBox="-122.54 -122.54 1359.08 1337.08" fill="none" xmlns="http://www.w3.org/2000/svg">

<g id="Frame 2523">

<g id="Group 2551">
<g id="Vector 50">
<path d="M1007.85 712.087C1305.98 -209.514 -197.614 -267.885 90.9716 721.067C-16.8218 817.044 -15.6992 909.653 26.9654 955.677C143.193 1070.18 292.541 888.886 292.541 888.886C285.105 999.553 301.527 1082.17 389.113 1090.38C478.388 1098.75 517.883 1052.83 552.499 955.677C578.179 1044.91 651.32 1101.14 717.009 1085.89C811.337 1064 818.436 998.905 811.333 888.886C866.918 952.87 1021.65 1016.05 1088.12 936.755C1143.63 870.525 1106.64 795.877 1007.85 712.087Z" fill="#A887EE"/>
<path d="M1007.85 712.087C1305.98 -209.514 -197.614 -267.885 90.9716 721.067C-16.8218 817.044 -15.6992 909.653 26.9654 955.677C143.193 1070.18 292.541 888.886 292.541 888.886C285.105 999.553 301.527 1082.17 389.113 1090.38C478.388 1098.75 517.883 1052.83 552.499 955.677C578.179 1044.91 651.32 1101.14 717.009 1085.89C811.337 1064 818.436 998.905 811.333 888.886C866.918 952.87 1021.65 1016.05 1088.12 936.755C1143.63 870.525 1106.64 795.877 1007.85 712.087Z" fill="url(#paint0_radial_0_1)"/>
</g>
<g id="Frame 2513" filter="url(#filter0_d_0_1)">
<g id="Frame 1040">
<g id="Subtract" filter="url(#filter1_i_0_1)">
<path d="M360.454 444.675C296.691 444.675 245 496.398 245 560.201C245 594.374 259.83 625.08 283.399 646.231C316.422 625.372 355.54 613.299 397.478 613.299C418.505 613.299 438.824 616.335 458.021 621.99C469.347 604.121 475.907 582.928 475.907 560.201C475.907 496.398 424.217 444.675 360.454 444.675Z" fill="url(#paint1_linear_0_1)"/>
</g>
<g id="Mask group">
<mask id="mask0_0_1" style="mask-type:alpha" maskUnits="userSpaceOnUse" x="245" y="444" width="231" height="203">
<path id="Subtract_2" d="M360.454 444.675C296.691 444.675 245 496.398 245 560.201C245 594.374 259.83 625.08 283.399 646.231C316.422 625.372 355.54 613.299 397.478 613.299C418.506 613.299 438.824 616.335 458.021 621.99C469.347 604.121 475.907 582.928 475.907 560.201C475.907 496.398 424.217 444.675 360.454 444.675Z" fill="white"/>
</mask>
<g mask="url(#mask0_0_1)">
<circle id="Ellipse 76" cx="96.439" cy="96.439" r="96.439" transform="matrix(-1 0 0 1 457.428 461.998)" fill="url(#paint2_radial_0_1)"/>
</g>
</g>
<g id="$" filter="url(#filter2_i_0_1)">
<path d="M372.617 589.868C366.517 591.503 361.112 592.266 356.401 592.159C351.679 592.011 347.509 591.119 343.89 589.482C340.26 587.804 337.336 585.628 335.117 582.954C332.921 580.362 331.919 577.693 332.111 574.948C332.302 572.202 333.604 569.887 336.015 568.004C338.069 566.438 340.317 565.681 342.761 565.733C345.245 565.774 347.433 566.602 349.323 568.215C351.026 569.791 352.79 571.019 354.616 571.899C356.472 572.726 358.587 573.198 360.959 573.313C363.32 573.388 365.778 573.082 368.333 572.398C372.124 571.382 374.749 569.883 376.206 567.903C377.693 565.87 378.083 563.535 377.376 560.897C376.659 558.218 374.994 556.456 372.382 555.61C369.759 554.722 364.649 554.28 357.052 554.284C345.762 554.35 337.693 552.757 332.847 549.506C328.03 546.203 324.778 541.398 323.088 535.093C321.133 527.798 322.37 521.04 326.799 514.817C331.227 508.595 338.552 504.115 348.773 501.376C353.965 499.985 358.55 499.375 362.528 499.546C366.505 499.717 370.073 500.506 373.233 501.912C376.422 503.266 378.898 504.921 380.659 506.879C382.536 508.938 383.476 511.292 383.479 513.942C383.483 516.591 382.46 518.875 380.412 520.793C378.578 522.521 376.394 523.438 373.86 523.542C371.357 523.595 369.119 522.825 367.146 521.233C365.919 520.281 364.633 519.521 363.289 518.954C361.985 518.376 360.411 518.024 358.567 517.9C356.764 517.765 354.812 517.979 352.71 518.542C349.454 519.414 347.117 520.748 345.698 522.541C344.309 524.283 343.907 526.245 344.493 528.43C345.166 530.944 346.774 532.655 349.314 533.565C351.885 534.422 357.382 534.826 365.806 534.778C376.228 534.768 383.898 536.357 388.816 539.545C393.734 542.733 397.104 547.726 398.926 554.527C401.057 562.481 399.699 569.691 394.85 576.159C390.001 582.626 382.59 587.196 372.617 589.868ZM346.169 513.669L341.846 497.534C341.438 496.009 341.626 494.567 342.41 493.209C343.183 491.809 344.332 490.905 345.857 490.496C347.382 490.087 348.829 490.296 350.199 491.122C351.558 491.906 352.441 493.061 352.85 494.585L357.173 510.72L346.169 513.669ZM375.346 600.798C373.822 601.207 372.354 601.004 370.943 600.189C369.584 599.405 368.695 598.229 368.275 596.663L363.72 579.663L374.724 576.715L379.279 593.715C379.699 595.281 379.516 596.743 378.732 598.102C378 599.491 376.871 600.389 375.346 600.798Z" fill="white"/>
</g>
</g>
<g id="Frame 1041">
<g id="Subtract_3" filter="url(#filter3_i_0_1)">
<path d="M733.449 444.675C797.212 444.675 848.903 496.398 848.903 560.201C848.903 594.374 834.074 625.08 810.504 646.231C777.482 625.372 738.363 613.299 696.425 613.299C675.398 613.299 655.079 616.335 635.882 621.99C624.556 604.121 617.996 582.928 617.996 560.201C617.996 496.398 669.686 444.675 733.449 444.675Z" fill="url(#paint3_linear_0_1)"/>
</g>
<g id="Mask group_2">
<mask id="mask1_0_1" style="mask-type:alpha" maskUnits="userSpaceOnUse" x="617" y="444" width="232" height="203">
<path id="Subtract_4" d="M733.449 444.675C797.212 444.675 848.903 496.398 848.903 560.201C848.903 594.374 834.074 625.08 810.504 646.231C777.482 625.372 738.363 613.299 696.425 613.299C675.398 613.299 655.079 616.335 635.882 621.99C624.556 604.121 617.996 582.928 617.996 560.201C617.996 496.398 669.686 444.675 733.449 444.675Z" fill="white"/>
</mask>
<g mask="url(#mask1_0_1)">
<circle id="Ellipse 76_2" cx="732.914" cy="558.437" r="96.439" fill="url(#paint4_radial_0_1)"/>
</g>
</g>
<g id="$_2" filter="url(#filter4_i_0_1)">
<path d="M721.896 590.183C715.797 588.548 710.734 586.507 706.708 584.059C702.692 581.57 699.527 578.712 697.211 575.485C694.906 572.217 693.462 568.871 692.878 565.445C692.272 562.103 692.738 559.29 694.277 557.008C695.816 554.726 698.101 553.372 701.13 552.947C703.692 552.618 706.018 553.086 708.108 554.353C710.239 555.631 711.72 557.441 712.55 559.784C713.237 562 714.151 563.945 715.292 565.621C716.486 567.266 718.081 568.731 720.078 570.017C722.085 571.262 724.367 572.226 726.922 572.911C730.713 573.927 733.735 573.941 735.987 572.955C738.292 571.938 739.797 570.111 740.504 567.473C741.222 564.794 740.661 562.435 738.822 560.397C736.994 558.317 732.79 555.379 726.209 551.584C716.399 545.996 710.208 540.582 707.636 535.343C705.116 530.074 704.701 524.287 706.391 517.981C708.346 510.687 712.796 505.452 719.742 502.278C726.689 499.104 735.272 498.886 745.493 501.624C750.686 503.016 754.961 504.78 758.32 506.917C761.679 509.054 764.375 511.521 766.408 514.318C768.494 517.086 769.81 519.757 770.356 522.333C770.952 525.055 770.589 527.564 769.267 529.86C767.945 532.156 765.918 533.622 763.185 534.26C760.733 534.839 758.383 534.541 756.137 533.365C753.942 532.158 752.389 530.373 751.476 528.008C750.89 526.57 750.156 525.269 749.275 524.105C748.436 522.953 747.248 521.862 745.713 520.832C744.219 519.813 742.421 519.022 740.319 518.459C737.064 517.587 734.373 517.572 732.247 518.416C730.174 519.23 728.845 520.729 728.26 522.914C727.586 525.428 728.122 527.713 729.867 529.771C731.665 531.799 736.224 534.898 743.543 539.068C752.574 544.27 758.422 549.481 761.087 554.701C763.752 559.921 764.174 565.931 762.352 572.731C760.22 580.685 755.438 586.25 748.006 589.427C740.573 592.603 731.87 592.855 721.896 590.183ZM737.092 510.969L741.415 494.834C741.824 493.309 742.708 492.154 744.066 491.37C745.436 490.544 746.883 490.336 748.408 490.744C749.933 491.153 751.082 492.057 751.856 493.457C752.64 494.816 752.828 496.257 752.419 497.782L748.096 513.917L737.092 510.969ZM718.795 601.013C717.271 600.605 716.101 599.695 715.286 598.284C714.502 596.925 714.319 595.463 714.739 593.897L719.294 576.897L730.298 579.845L725.743 596.845C725.323 598.411 724.434 599.587 723.075 600.371C721.747 601.208 720.32 601.422 718.795 601.013Z" fill="white"/>
</g>
</g>
</g>
</g>
</g>
<defs>
<filter id="filter0_d_0_1" x="240.38" y="440.055" width="613.143" height="210.795" filterUnits="userSpaceOnUse" color-interpolation-filters="sRGB">
<feFlood flood-opacity="0" result="BackgroundImageFix"/>
<feColorMatrix in="SourceAlpha" type="matrix" values="0 0 0 0 0 0 0 0 0 0 0 0 0 0 0 0 0 0 127 0" result="hardAlpha"/>
<feOffset/>
<feGaussianBlur stdDeviation="2.30992"/>
<feComposite in2="hardAlpha" operator="out"/>
<feColorMatrix type="matrix" values="0 0 0 0 0 0 0 0 0 0 0 0 0 0 0 0 0 0 0.25 0"/>
<feBlend mode="normal" in2="BackgroundImageFix" result="effect1_dropShadow_0_1"/>
<feBlend mode="normal" in="SourceGraphic" in2="effect1_dropShadow_0_1" result="shape"/>
</filter>
<filter id="filter1_i_0_1" x="245" y="444.675" width="230.907" height="206.175" filterUnits="userSpaceOnUse" color-interpolation-filters="sRGB">
<feFlood flood-opacity="0" result="BackgroundImageFix"/>
<feBlend mode="normal" in="SourceGraphic" in2="BackgroundImageFix" result="shape"/>
<feColorMatrix in="SourceAlpha" type="matrix" values="0 0 0 0 0 0 0 0 0 0 0 0 0 0 0 0 0 0 127 0" result="hardAlpha"/>
<feOffset dy="5.77479"/>
<feGaussianBlur stdDeviation="2.30992"/>
<feComposite in2="hardAlpha" operator="arithmetic" k2="-1" k3="1"/>
<feColorMatrix type="matrix" values="0 0 0 0 0 0 0 0 0 0 0 0 0 0 0 0 0 0 0.25 0"/>
<feBlend mode="normal" in2="shape" result="effect1_innerShadow_0_1"/>
</filter>
<filter id="filter2_i_0_1" x="322.19" y="490.293" width="77.7119" height="110.71" filterUnits="userSpaceOnUse" color-interpolation-filters="sRGB">
<feFlood flood-opacity="0" result="BackgroundImageFix"/>
<feBlend mode="normal" in="SourceGraphic" in2="BackgroundImageFix" result="shape"/>
<feColorMatrix in="SourceAlpha" type="matrix" values="0 0 0 0 0 0 0 0 0 0 0 0 0 0 0 0 0 0 127 0" result="hardAlpha"/>
<feOffset/>
<feGaussianBlur stdDeviation="2.58323"/>
<feComposite in2="hardAlpha" operator="arithmetic" k2="-1" k3="1"/>
<feColorMatrix type="matrix" values="0 0 0 0 0 0 0 0 0 0 0 0 0 0 0 0 0 0 1 0"/>
<feBlend mode="normal" in2="shape" result="effect1_innerShadow_0_1"/>
</filter>
<filter id="filter3_i_0_1" x="617.996" y="444.675" width="230.907" height="206.175" filterUnits="userSpaceOnUse" color-interpolation-filters="sRGB">
<feFlood flood-opacity="0" result="BackgroundImageFix"/>
<feBlend mode="normal" in="SourceGraphic" in2="BackgroundImageFix" result="shape"/>
<feColorMatrix in="SourceAlpha" type="matrix" values="0 0 0 0 0 0 0 0 0 0 0 0 0 0 0 0 0 0 127 0" result="hardAlpha"/>
<feOffset dy="5.77479"/>
<feGaussianBlur stdDeviation="2.30992"/>
<feComposite in2="hardAlpha" operator="arithmetic" k2="-1" k3="1"/>
<feColorMatrix type="matrix" values="0 0 0 0 0 0 0 0 0 0 0 0 0 0 0 0 0 0 0.25 0"/>
<feBlend mode="normal" in2="shape" result="effect1_innerShadow_0_1"/>
</filter>
<filter id="filter4_i_0_1" x="692.621" y="490.541" width="78.0128" height="110.673" filterUnits="userSpaceOnUse" color-interpolation-filters="sRGB">
<feFlood flood-opacity="0" result="BackgroundImageFix"/>
<feBlend mode="normal" in="SourceGraphic" in2="BackgroundImageFix" result="shape"/>
<feColorMatrix in="SourceAlpha" type="matrix" values="0 0 0 0 0 0 0 0 0 0 0 0 0 0 0 0 0 0 127 0" result="hardAlpha"/>
<feOffset/>
<feGaussianBlur stdDeviation="2.58323"/>
<feComposite in2="hardAlpha" operator="arithmetic" k2="-1" k3="1"/>
<feColorMatrix type="matrix" values="0 0 0 0 0 0 0 0 0 0 0 0 0 0 0 0 0 0 1 0"/>
<feBlend mode="normal" in2="shape" result="effect1_innerShadow_0_1"/>
</filter>
<radialGradient id="paint0_radial_0_1" cx="0" cy="0" r="1" gradientTransform="matrix(-1055.98 1128.12 -1151.53 -2045.78 985.194 93.2549)" gradientUnits="userSpaceOnUse">
<stop stop-color="#9A94E5"/>
<stop offset="0.504808" stop-color="#5E51F1"/>
<stop offset="1" stop-color="#362F8B"/>
</radialGradient>
<linearGradient id="paint1_linear_0_1" x1="360.454" y1="581.537" x2="360.454" y2="652.567" gradientUnits="userSpaceOnUse">
<stop stop-color="white"/>
<stop offset="1" stop-color="#999999"/>
</linearGradient>
<radialGradient id="paint2_radial_0_1" cx="0" cy="0" r="1" gradientUnits="userSpaceOnUse" gradientTransform="translate(96.439 96.439) rotate(90.215) scale(142.638)">
<stop offset="0.544931" stop-color="#161616"/>
<stop offset="1" stop-color="#575757"/>
</radialGradient>
<linearGradient id="paint3_linear_0_1" x1="733.45" y1="581.537" x2="733.45" y2="652.567" gradientUnits="userSpaceOnUse">
<stop stop-color="white"/>
<stop offset="1" stop-color="#999999"/>
</linearGradient>
<radialGradient id="paint4_radial_0_1" cx="0" cy="0" r="1" gradientUnits="userSpaceOnUse" gradientTransform="translate(732.914 558.437) rotate(90.215) scale(142.638)">
<stop offset="0.544931" stop-color="#161616"/>
<stop offset="1" stop-color="#575757"/>
</radialGradient>
</defs>
</svg>
