<svg width="1115" height="1122" viewBox="0 0 1115 1122" fill="none" xmlns="http://www.w3.org/2000/svg">

<g id="Frame 2523">

<g id="Group 2549">
<g id="Vector 52">
<path d="M1007.85 712.087C1305.98 -209.514 -197.614 -267.885 90.9716 721.067C-16.8218 817.044 -15.6992 909.653 26.9654 955.677C143.193 1070.18 292.541 888.886 292.541 888.886C285.105 999.553 301.527 1082.17 389.113 1090.38C478.388 1098.75 517.883 1052.83 552.499 955.677C578.179 1044.91 651.32 1101.14 717.009 1085.89C811.337 1064 818.436 998.905 811.333 888.886C866.918 952.87 918.035 1009.3 984.5 930C1040.01 863.771 1106.64 795.877 1007.85 712.087Z" fill="#A887EE"/>
<path d="M1007.85 712.087C1305.98 -209.514 -197.614 -267.885 90.9716 721.067C-16.8218 817.044 -15.6992 909.653 26.9654 955.677C143.193 1070.18 292.541 888.886 292.541 888.886C285.105 999.553 301.527 1082.17 389.113 1090.38C478.388 1098.75 517.883 1052.83 552.499 955.677C578.179 1044.91 651.32 1101.14 717.009 1085.89C811.337 1064 818.436 998.905 811.333 888.886C866.918 952.87 918.035 1009.3 984.5 930C1040.01 863.771 1106.64 795.877 1007.85 712.087Z" fill="url(#paint0_radial_0_1)"/>
</g>
<g id="Frame 2522" filter="url(#filter0_d_0_1)">
<g id="Frame 1040">
<g id="Subtract" filter="url(#filter1_i_0_1)">
<path d="M370.454 430.675C306.691 430.675 255 482.398 255 546.201C255 580.374 269.83 611.08 293.399 632.231C326.422 611.372 365.54 599.299 407.478 599.299C428.505 599.299 448.824 602.335 468.021 607.99C479.347 590.121 485.907 568.928 485.907 546.201C485.907 482.398 434.217 430.675 370.454 430.675Z" fill="url(#paint1_linear_0_1)"/>
</g>
<g id="Mask group">
<mask id="mask0_0_1" style="mask-type:alpha" maskUnits="userSpaceOnUse" x="255" y="430" width="231" height="203">
<path id="Subtract_2" d="M370.454 430.675C306.691 430.675 255 482.398 255 546.201C255 580.374 269.83 611.08 293.399 632.231C326.422 611.372 365.54 599.299 407.478 599.299C428.506 599.299 448.824 602.335 468.021 607.99C479.347 590.121 485.907 568.928 485.907 546.201C485.907 482.398 434.217 430.675 370.454 430.675Z" fill="white"/>
</mask>
<g mask="url(#mask0_0_1)">
<circle id="Ellipse 76" cx="96.439" cy="96.439" r="96.439" transform="matrix(-1 0 0 1 467.428 447.998)" fill="url(#paint2_radial_0_1)"/>
</g>
</g>
</g>
<g id="Frame 1041">
<g id="Subtract_3" filter="url(#filter2_i_0_1)">
<path d="M743.449 430.675C807.212 430.675 858.903 482.398 858.903 546.201C858.903 580.374 844.074 611.08 820.504 632.231C787.482 611.372 748.363 599.299 706.425 599.299C685.398 599.299 665.079 602.335 645.882 607.99C634.556 590.121 627.996 568.928 627.996 546.201C627.996 482.398 679.686 430.675 743.449 430.675Z" fill="url(#paint3_linear_0_1)"/>
</g>
<g id="Mask group_2">
<mask id="mask1_0_1" style="mask-type:alpha" maskUnits="userSpaceOnUse" x="627" y="430" width="232" height="203">
<path id="Subtract_4" d="M743.449 430.675C807.212 430.675 858.903 482.398 858.903 546.201C858.903 580.374 844.074 611.08 820.504 632.231C787.482 611.372 748.363 599.299 706.425 599.299C685.398 599.299 665.079 602.335 645.882 607.99C634.556 590.121 627.996 568.928 627.996 546.201C627.996 482.398 679.686 430.675 743.449 430.675Z" fill="white"/>
</mask>
<g mask="url(#mask1_0_1)">
<circle id="Ellipse 76_2" cx="742.914" cy="544.437" r="96.439" fill="url(#paint4_radial_0_1)"/>
</g>
</g>
<g id="Group 2499">
<circle id="Ellipse 77" opacity="0.8" cx="772.841" cy="500.604" r="14.6037" fill="white"/>
<circle id="Ellipse 79" opacity="0.6" cx="784.271" cy="545.049" r="8.25428" fill="white"/>
<circle id="Ellipse 78" opacity="0.4" cx="748.715" cy="589.496" r="5.7145" fill="white"/>
</g>
<g id="Group 2500">
<circle id="Ellipse 77_2" opacity="0.8" cx="14.6037" cy="14.6037" r="14.6037" transform="matrix(-1 0 0 1 347.288 486)" fill="white"/>
<circle id="Ellipse 79_2" opacity="0.6" cx="8.25428" cy="8.25428" r="8.25428" transform="matrix(-1 0 0 1 329.509 536.795)" fill="white"/>
<circle id="Ellipse 78_2" opacity="0.4" cx="5.7145" cy="5.7145" r="5.7145" transform="matrix(-1 0 0 1 362.525 583.781)" fill="white"/>
</g>
</g>
</g>
<g id="Group 2540">
<g id="Vector" filter="url(#filter3_di_0_1)">
<path d="M974.315 731.762C979.033 735.543 984.565 740.516 988.893 744.717C1024.27 778.63 1044.75 825.188 1045.85 874.183C1046.33 912.349 1032.4 950.511 1005.5 977.906C991.702 991.814 974.034 1001.25 954.799 1004.99C928.978 1010.1 902.186 1004.65 880.41 989.87C872.678 984.585 868.113 979.772 861.346 974.004C855.62 969.123 844.7 958.314 838.705 954.937C834.239 952.437 829.191 951.17 824.074 951.265C818.268 951.327 812.611 953.111 807.82 956.398C787.676 970.211 801.599 986.805 786.416 1001.87C780.048 1008.19 773.129 1010.61 764.313 1010.64C749.545 1009.7 739.702 998.388 730.438 987.875C707.195 961.494 692.333 928.788 687.751 893.929C681.495 847.238 694.104 799.98 722.789 762.613C751.537 725.057 794.101 700.548 841.012 694.535C889.863 688.239 935.586 701.813 974.315 731.762Z" fill="url(#paint5_linear_0_1)"/>
</g>
<path id="Vector_2" d="M793.747 779.577C807.401 788.582 811.156 806.957 802.131 820.597C793.106 834.237 774.725 837.964 761.099 828.919C747.503 819.891 743.784 801.559 752.79 787.949C761.796 774.338 780.123 770.592 793.747 779.577Z" fill="#18143C"/>
<path id="Vector_3" d="M955.725 923.688C969.434 932.646 973.256 951.033 964.256 964.712C955.254 978.389 936.855 982.156 923.206 973.114C909.616 964.11 905.872 945.809 914.831 932.191C923.791 918.572 942.081 914.772 955.725 923.688Z" fill="#18143C"/>
<path id="Vector_4" d="M963.548 825.165C977.396 833.899 981.516 852.217 972.743 866.038C963.97 879.859 945.641 883.928 931.844 875.116C918.104 866.339 914.057 848.101 922.794 834.335C931.531 820.57 949.758 816.469 963.548 825.165Z" fill="#18143C"/>
<path id="Vector_5" d="M889.843 759.613C903.704 768.329 907.847 786.647 899.087 800.48C890.326 814.313 871.995 818.398 858.19 809.594C844.447 800.829 840.384 782.598 849.105 768.827C857.827 755.056 876.045 750.935 889.843 759.613Z" fill="#18143C"/>
</g>
</g>
</g>
<defs>
<filter id="filter0_d_0_1" x="250.38" y="426.055" width="613.143" height="210.795" filterUnits="userSpaceOnUse" color-interpolation-filters="sRGB">
<feFlood flood-opacity="0" result="BackgroundImageFix"/>
<feColorMatrix in="SourceAlpha" type="matrix" values="0 0 0 0 0 0 0 0 0 0 0 0 0 0 0 0 0 0 127 0" result="hardAlpha"/>
<feOffset/>
<feGaussianBlur stdDeviation="2.30992"/>
<feComposite in2="hardAlpha" operator="out"/>
<feColorMatrix type="matrix" values="0 0 0 0 0 0 0 0 0 0 0 0 0 0 0 0 0 0 0.25 0"/>
<feBlend mode="normal" in2="BackgroundImageFix" result="effect1_dropShadow_0_1"/>
<feBlend mode="normal" in="SourceGraphic" in2="effect1_dropShadow_0_1" result="shape"/>
</filter>
<filter id="filter1_i_0_1" x="255" y="430.675" width="230.907" height="206.175" filterUnits="userSpaceOnUse" color-interpolation-filters="sRGB">
<feFlood flood-opacity="0" result="BackgroundImageFix"/>
<feBlend mode="normal" in="SourceGraphic" in2="BackgroundImageFix" result="shape"/>
<feColorMatrix in="SourceAlpha" type="matrix" values="0 0 0 0 0 0 0 0 0 0 0 0 0 0 0 0 0 0 127 0" result="hardAlpha"/>
<feOffset dy="5.77479"/>
<feGaussianBlur stdDeviation="2.30992"/>
<feComposite in2="hardAlpha" operator="arithmetic" k2="-1" k3="1"/>
<feColorMatrix type="matrix" values="0 0 0 0 0 0 0 0 0 0 0 0 0 0 0 0 0 0 0.25 0"/>
<feBlend mode="normal" in2="shape" result="effect1_innerShadow_0_1"/>
</filter>
<filter id="filter2_i_0_1" x="627.996" y="430.675" width="230.907" height="206.175" filterUnits="userSpaceOnUse" color-interpolation-filters="sRGB">
<feFlood flood-opacity="0" result="BackgroundImageFix"/>
<feBlend mode="normal" in="SourceGraphic" in2="BackgroundImageFix" result="shape"/>
<feColorMatrix in="SourceAlpha" type="matrix" values="0 0 0 0 0 0 0 0 0 0 0 0 0 0 0 0 0 0 127 0" result="hardAlpha"/>
<feOffset dy="5.77479"/>
<feGaussianBlur stdDeviation="2.30992"/>
<feComposite in2="hardAlpha" operator="arithmetic" k2="-1" k3="1"/>
<feColorMatrix type="matrix" values="0 0 0 0 0 0 0 0 0 0 0 0 0 0 0 0 0 0 0.25 0"/>
<feBlend mode="normal" in2="shape" result="effect1_innerShadow_0_1"/>
</filter>
<filter id="filter3_di_0_1" x="671.65" y="693.024" width="378.927" height="337.057" filterUnits="userSpaceOnUse" color-interpolation-filters="sRGB">
<feFlood flood-opacity="0" result="BackgroundImageFix"/>
<feColorMatrix in="SourceAlpha" type="matrix" values="0 0 0 0 0 0 0 0 0 0 0 0 0 0 0 0 0 0 127 0" result="hardAlpha"/>
<feOffset dx="-4.90952" dy="9.81904"/>
<feGaussianBlur stdDeviation="4.81133"/>
<feComposite in2="hardAlpha" operator="out"/>
<feColorMatrix type="matrix" values="0 0 0 0 0 0 0 0 0 0 0 0 0 0 0 0 0 0 0.32 0"/>
<feBlend mode="normal" in2="BackgroundImageFix" result="effect1_dropShadow_0_1"/>
<feBlend mode="normal" in="SourceGraphic" in2="effect1_dropShadow_0_1" result="shape"/>
<feColorMatrix in="SourceAlpha" type="matrix" values="0 0 0 0 0 0 0 0 0 0 0 0 0 0 0 0 0 0 127 0" result="hardAlpha"/>
<feOffset/>
<feGaussianBlur stdDeviation="19.3435"/>
<feComposite in2="hardAlpha" operator="arithmetic" k2="-1" k3="1"/>
<feColorMatrix type="matrix" values="0 0 0 0 0 0 0 0 0 0 0 0 0 0 0 0 0 0 0.25 0"/>
<feBlend mode="normal" in2="shape" result="effect2_innerShadow_0_1"/>
</filter>
<radialGradient id="paint0_radial_0_1" cx="0" cy="0" r="1" gradientTransform="matrix(-1011.25 1128.12 -1102.75 -2045.78 943.459 93.2549)" gradientUnits="userSpaceOnUse">
<stop stop-color="#9A94E5"/>
<stop offset="0.504808" stop-color="#5E51F1"/>
<stop offset="1" stop-color="#362F8B"/>
</radialGradient>
<linearGradient id="paint1_linear_0_1" x1="370.454" y1="567.537" x2="370.454" y2="638.567" gradientUnits="userSpaceOnUse">
<stop stop-color="white"/>
<stop offset="1" stop-color="#999999"/>
</linearGradient>
<radialGradient id="paint2_radial_0_1" cx="0" cy="0" r="1" gradientUnits="userSpaceOnUse" gradientTransform="translate(96.439 96.439) rotate(90.215) scale(142.638)">
<stop offset="0.544931" stop-color="#161616"/>
<stop offset="1" stop-color="#575757"/>
</radialGradient>
<linearGradient id="paint3_linear_0_1" x1="743.45" y1="567.537" x2="743.45" y2="638.567" gradientUnits="userSpaceOnUse">
<stop stop-color="white"/>
<stop offset="1" stop-color="#999999"/>
</linearGradient>
<radialGradient id="paint4_radial_0_1" cx="0" cy="0" r="1" gradientUnits="userSpaceOnUse" gradientTransform="translate(742.914 544.437) rotate(90.215) scale(142.638)">
<stop offset="0.544931" stop-color="#161616"/>
<stop offset="1" stop-color="#575757"/>
</radialGradient>
<linearGradient id="paint5_linear_0_1" x1="1121.98" y1="915.149" x2="669.983" y2="1020.89" gradientUnits="userSpaceOnUse">
<stop stop-color="#383379"/>
<stop offset="1" stop-color="#362F8B"/>
</linearGradient>
</defs>
</svg>
