<svg width="1416.80" height="1220.80" viewBox="-64.40 -64.40 1416.80 1220.80" fill="none" xmlns="http://www.w3.org/2000/svg">

<g id="Frame 2523">

<g id="Group 2550">
<g id="Group 2541">
<g id="Vector 51">
<path d="M1007.85 712.087C1305.98 -209.514 -197.614 -267.885 90.9716 721.067C-16.8218 817.044 -15.6992 909.653 26.9654 955.677C143.193 1070.18 292.541 888.886 292.541 888.886C285.105 999.553 301.527 1082.17 389.113 1090.38C478.388 1098.75 517.883 1052.83 552.499 955.677C578.179 1044.91 651.32 1101.14 717.009 1085.89C811.337 1064 818.436 998.905 811.333 888.886C866.918 952.87 1059.03 1003.8 1125.5 924.5C1180.68 858.661 1107.52 796.613 1009.59 713.567L1007.85 712.087Z" fill="#A887EE"/>
<path d="M1007.85 712.087C1305.98 -209.514 -197.614 -267.885 90.9716 721.067C-16.8218 817.044 -15.6992 909.653 26.9654 955.677C143.193 1070.18 292.541 888.886 292.541 888.886C285.105 999.553 301.527 1082.17 389.113 1090.38C478.388 1098.75 517.883 1052.83 552.499 955.677C578.179 1044.91 651.32 1101.14 717.009 1085.89C811.337 1064 818.436 998.905 811.333 888.886C866.918 952.87 1059.03 1003.8 1125.5 924.5C1180.68 858.661 1107.52 796.613 1009.59 713.567L1007.85 712.087Z" fill="url(#paint0_radial_0_1)"/>
</g>
<g id="Frame 2521" filter="url(#filter0_d_0_1)">
<g id="Frame 1040">
<g id="Subtract" filter="url(#filter1_i_0_1)">
<path d="M360.454 444.675C296.691 444.675 245 496.398 245 560.201C245 594.374 259.83 625.08 283.399 646.231C316.421 625.372 355.54 613.299 397.478 613.299C418.505 613.299 438.824 616.335 458.021 621.99C469.347 604.121 475.907 582.928 475.907 560.201C475.907 496.398 424.217 444.675 360.454 444.675Z" fill="url(#paint1_linear_0_1)"/>
</g>
<g id="Mask group">
<mask id="mask0_0_1" style="mask-type:alpha" maskUnits="userSpaceOnUse" x="244" y="444" width="232" height="203">
<path id="Subtract_2" d="M360.454 444.675C296.691 444.675 245 496.398 245 560.201C245 594.374 259.83 625.08 283.399 646.231C316.421 625.372 355.54 613.299 397.478 613.299C418.505 613.299 438.824 616.335 458.021 621.99C469.347 604.121 475.907 582.928 475.907 560.201C475.907 496.398 424.217 444.675 360.454 444.675Z" fill="white"/>
</mask>
<g mask="url(#mask0_0_1)">
<circle id="Ellipse 76" cx="96.439" cy="96.439" r="96.439" transform="matrix(-1 0 0 1 457.428 461.998)" fill="url(#paint2_radial_0_1)"/>
</g>
</g>
</g>
<g id="Frame 1041">
<g id="Subtract_3" filter="url(#filter2_i_0_1)">
<path d="M733.449 444.675C797.213 444.675 848.903 496.398 848.903 560.201C848.903 594.374 834.074 625.08 810.504 646.231C777.482 625.372 738.363 613.299 696.425 613.299C675.398 613.299 655.08 616.335 635.882 621.99C624.556 604.121 617.996 582.928 617.996 560.201C617.996 496.398 669.686 444.675 733.449 444.675Z" fill="url(#paint3_linear_0_1)"/>
</g>
<g id="Mask group_2">
<mask id="mask1_0_1" style="mask-type:alpha" maskUnits="userSpaceOnUse" x="617" y="444" width="232" height="203">
<path id="Subtract_4" d="M733.449 444.675C797.213 444.675 848.903 496.398 848.903 560.201C848.903 594.374 834.074 625.08 810.504 646.231C777.482 625.372 738.363 613.299 696.425 613.299C675.398 613.299 655.08 616.335 635.882 621.99C624.556 604.121 617.996 582.928 617.996 560.201C617.996 496.398 669.686 444.675 733.449 444.675Z" fill="white"/>
</mask>
<g mask="url(#mask1_0_1)">
<circle id="Ellipse 76_2" cx="732.914" cy="558.437" r="96.439" fill="url(#paint4_radial_0_1)"/>
</g>
</g>
<g id="Group 2499">
<circle id="Ellipse 77" opacity="0.8" cx="762.841" cy="514.604" r="14.6037" fill="white"/>
<circle id="Ellipse 79" opacity="0.6" cx="774.271" cy="559.049" r="8.25428" fill="white"/>
<circle id="Ellipse 78" opacity="0.4" cx="738.715" cy="603.496" r="5.7145" fill="white"/>
</g>
<g id="Group 2500">
<circle id="Ellipse 77_2" opacity="0.8" cx="14.6037" cy="14.6037" r="14.6037" transform="matrix(-1 0 0 1 337.288 500)" fill="white"/>
<circle id="Ellipse 79_2" opacity="0.6" cx="8.25428" cy="8.25428" r="8.25428" transform="matrix(-1 0 0 1 319.509 550.795)" fill="white"/>
<circle id="Ellipse 78_2" opacity="0.4" cx="5.7145" cy="5.7145" r="5.7145" transform="matrix(-1 0 0 1 352.525 597.781)" fill="white"/>
</g>
</g>
</g>
</g>
<g id="Vector" filter="url(#filter3_di_0_1)">
<path d="M978.954 862.931C969.801 846.823 975.438 826.345 991.545 817.191L994.405 815.566C1010.51 806.413 1030.99 812.05 1040.14 828.157L1076.79 892.634C1085.94 908.741 1080.3 929.219 1064.19 938.373L1061.33 939.998C1045.23 949.152 1024.75 943.515 1015.6 927.407L978.954 862.931Z" fill="url(#paint5_linear_0_1)"/>
<path d="M884.841 781.495C875.687 765.387 881.324 744.909 897.432 735.755L958.7 700.937C974.808 691.784 995.286 697.421 1004.44 713.529L1035.57 768.307C1044.72 784.415 1039.09 804.893 1022.98 814.047L961.71 848.865C945.603 858.018 925.124 852.381 915.971 836.273L884.841 781.495Z" fill="url(#paint6_linear_0_1)"/>
<path d="M1060.31 587.463L998.835 675.878C991.463 686.481 990.832 700.375 997.213 711.602L1034.23 776.737C1040.34 787.496 1051.88 794.015 1064.25 793.697L1174.37 790.868C1199.7 790.217 1215.19 762.791 1202.67 740.759L1117.02 590.039C1104.82 568.576 1074.4 567.194 1060.31 587.463Z" fill="url(#paint7_linear_0_1)"/>
<path d="M1156.38 602.545C1149.99 599.922 1146.94 592.618 1149.57 586.233L1164.01 551.083C1166.63 544.697 1173.93 541.647 1180.32 544.27C1186.7 546.893 1189.75 554.196 1187.13 560.582L1172.69 595.732C1170.07 602.118 1162.76 605.168 1156.38 602.545Z" fill="url(#paint8_linear_0_1)"/>
<path d="M1263.64 669.831C1262.22 663.074 1255.6 658.741 1248.84 660.154L1211.65 667.929C1204.89 669.342 1200.56 675.965 1201.97 682.723C1203.38 689.48 1210.01 693.813 1216.76 692.4L1253.96 684.625C1260.72 683.212 1265.05 676.589 1263.64 669.831Z" fill="url(#paint9_linear_0_1)"/>
<path d="M1184.07 638.753C1179.65 633.444 1180.38 625.563 1185.69 621.15L1214.91 596.857C1220.22 592.444 1228.1 593.17 1232.51 598.478C1236.93 603.787 1236.2 611.668 1230.89 616.082L1201.67 640.374C1196.36 644.787 1188.48 644.061 1184.07 638.753Z" fill="url(#paint10_linear_0_1)"/>
</g>
</g>
</g>
<defs>
<filter id="filter0_d_0_1" x="240.38" y="440.055" width="613.143" height="210.795" filterUnits="userSpaceOnUse" color-interpolation-filters="sRGB">
<feFlood flood-opacity="0" result="BackgroundImageFix"/>
<feColorMatrix in="SourceAlpha" type="matrix" values="0 0 0 0 0 0 0 0 0 0 0 0 0 0 0 0 0 0 127 0" result="hardAlpha"/>
<feOffset/>
<feGaussianBlur stdDeviation="2.30992"/>
<feComposite in2="hardAlpha" operator="out"/>
<feColorMatrix type="matrix" values="0 0 0 0 0 0 0 0 0 0 0 0 0 0 0 0 0 0 0.25 0"/>
<feBlend mode="normal" in2="BackgroundImageFix" result="effect1_dropShadow_0_1"/>
<feBlend mode="normal" in="SourceGraphic" in2="effect1_dropShadow_0_1" result="shape"/>
</filter>
<filter id="filter1_i_0_1" x="245" y="444.675" width="230.907" height="206.175" filterUnits="userSpaceOnUse" color-interpolation-filters="sRGB">
<feFlood flood-opacity="0" result="BackgroundImageFix"/>
<feBlend mode="normal" in="SourceGraphic" in2="BackgroundImageFix" result="shape"/>
<feColorMatrix in="SourceAlpha" type="matrix" values="0 0 0 0 0 0 0 0 0 0 0 0 0 0 0 0 0 0 127 0" result="hardAlpha"/>
<feOffset dy="5.77479"/>
<feGaussianBlur stdDeviation="2.30992"/>
<feComposite in2="hardAlpha" operator="arithmetic" k2="-1" k3="1"/>
<feColorMatrix type="matrix" values="0 0 0 0 0 0 0 0 0 0 0 0 0 0 0 0 0 0 0.25 0"/>
<feBlend mode="normal" in2="shape" result="effect1_innerShadow_0_1"/>
</filter>
<filter id="filter2_i_0_1" x="617.996" y="444.675" width="230.907" height="206.175" filterUnits="userSpaceOnUse" color-interpolation-filters="sRGB">
<feFlood flood-opacity="0" result="BackgroundImageFix"/>
<feBlend mode="normal" in="SourceGraphic" in2="BackgroundImageFix" result="shape"/>
<feColorMatrix in="SourceAlpha" type="matrix" values="0 0 0 0 0 0 0 0 0 0 0 0 0 0 0 0 0 0 127 0" result="hardAlpha"/>
<feOffset dy="5.77479"/>
<feGaussianBlur stdDeviation="2.30992"/>
<feComposite in2="hardAlpha" operator="arithmetic" k2="-1" k3="1"/>
<feColorMatrix type="matrix" values="0 0 0 0 0 0 0 0 0 0 0 0 0 0 0 0 0 0 0.25 0"/>
<feBlend mode="normal" in2="shape" result="effect1_innerShadow_0_1"/>
</filter>
<filter id="filter3_di_0_1" x="852.355" y="524.229" width="435.649" height="453.256" filterUnits="userSpaceOnUse" color-interpolation-filters="sRGB">
<feFlood flood-opacity="0" result="BackgroundImageFix"/>
<feColorMatrix in="SourceAlpha" type="matrix" values="0 0 0 0 0 0 0 0 0 0 0 0 0 0 0 0 0 0 127 0" result="hardAlpha"/>
<feOffset dx="-2" dy="7"/>
<feGaussianBlur stdDeviation="13.05"/>
<feComposite in2="hardAlpha" operator="out"/>
<feColorMatrix type="matrix" values="0 0 0 0 0 0 0 0 0 0 0 0 0 0 0 0 0 0 0.54 0"/>
<feBlend mode="normal" in2="BackgroundImageFix" result="effect1_dropShadow_0_1"/>
<feBlend mode="normal" in="SourceGraphic" in2="effect1_dropShadow_0_1" result="shape"/>
<feColorMatrix in="SourceAlpha" type="matrix" values="0 0 0 0 0 0 0 0 0 0 0 0 0 0 0 0 0 0 127 0" result="hardAlpha"/>
<feOffset/>
<feGaussianBlur stdDeviation="19.4"/>
<feComposite in2="hardAlpha" operator="arithmetic" k2="-1" k3="1"/>
<feColorMatrix type="matrix" values="0 0 0 0 0 0 0 0 0 0 0 0 0 0 0 0 0 0 0.29 0"/>
<feBlend mode="normal" in2="shape" result="effect2_innerShadow_0_1"/>
</filter>
<radialGradient id="paint0_radial_0_1" cx="0" cy="0" r="1" gradientTransform="matrix(-1055.98 1128.12 -1151.53 -2045.78 985.194 93.2547)" gradientUnits="userSpaceOnUse">
<stop stop-color="#9A94E5"/>
<stop offset="0.504808" stop-color="#5E51F1"/>
<stop offset="1" stop-color="#362F8B"/>
</radialGradient>
<linearGradient id="paint1_linear_0_1" x1="360.453" y1="581.537" x2="360.453" y2="652.567" gradientUnits="userSpaceOnUse">
<stop stop-color="white"/>
<stop offset="1" stop-color="#999999"/>
</linearGradient>
<radialGradient id="paint2_radial_0_1" cx="0" cy="0" r="1" gradientUnits="userSpaceOnUse" gradientTransform="translate(96.439 96.439) rotate(90.215) scale(142.638)">
<stop offset="0.544931" stop-color="#161616"/>
<stop offset="1" stop-color="#575757"/>
</radialGradient>
<linearGradient id="paint3_linear_0_1" x1="733.45" y1="581.537" x2="733.45" y2="652.567" gradientUnits="userSpaceOnUse">
<stop stop-color="white"/>
<stop offset="1" stop-color="#999999"/>
</linearGradient>
<radialGradient id="paint4_radial_0_1" cx="0" cy="0" r="1" gradientUnits="userSpaceOnUse" gradientTransform="translate(732.914 558.437) rotate(90.215) scale(142.638)">
<stop offset="0.544931" stop-color="#161616"/>
<stop offset="1" stop-color="#575757"/>
</radialGradient>
<linearGradient id="paint5_linear_0_1" x1="1233.67" y1="583.801" x2="1249.99" y2="619.898" gradientUnits="userSpaceOnUse">
<stop stop-color="#383379"/>
<stop offset="1" stop-color="#362F8B"/>
</linearGradient>
<linearGradient id="paint6_linear_0_1" x1="1233.67" y1="583.801" x2="1249.99" y2="619.898" gradientUnits="userSpaceOnUse">
<stop stop-color="#383379"/>
<stop offset="1" stop-color="#362F8B"/>
</linearGradient>
<linearGradient id="paint7_linear_0_1" x1="1233.67" y1="583.801" x2="1249.99" y2="619.898" gradientUnits="userSpaceOnUse">
<stop stop-color="#383379"/>
<stop offset="1" stop-color="#362F8B"/>
</linearGradient>
<linearGradient id="paint8_linear_0_1" x1="1233.67" y1="583.801" x2="1249.99" y2="619.898" gradientUnits="userSpaceOnUse">
<stop stop-color="#383379"/>
<stop offset="1" stop-color="#362F8B"/>
</linearGradient>
<linearGradient id="paint9_linear_0_1" x1="1233.67" y1="583.801" x2="1249.99" y2="619.898" gradientUnits="userSpaceOnUse">
<stop stop-color="#383379"/>
<stop offset="1" stop-color="#362F8B"/>
</linearGradient>
<linearGradient id="paint10_linear_0_1" x1="1233.67" y1="583.801" x2="1249.99" y2="619.898" gradientUnits="userSpaceOnUse">
<stop stop-color="#383379"/>
<stop offset="1" stop-color="#362F8B"/>
</linearGradient>
</defs>
</svg>
