<svg preserveAspectRatio="none" width="100%" height="100%" overflow="visible" style="display: block;" viewBox="0 0 233.912 211.453" fill="none" xmlns="http://www.w3.org/2000/svg">
<g id="Group 2529">
<path id="Vector 62" d="M21.8721 8.00006C88.8691 68.7647 9.23459 105.466 8.02276 147.014C6.81093 188.563 54.9377 203.451 54.9377 203.451" stroke="var(--stroke-0, white)" stroke-width="16" stroke-linecap="round"/>
<rect id="Rectangle 713" x="233.912" y="98.173" width="43.3571" height="85.3028" rx="7.98716" transform="rotate(138.79 233.912 98.173)" fill="var(--fill-0, white)"/>
<path id="Subtract" d="M129.305 75.6378C136.192 71.9124 144.74 73.4462 149.903 79.3332L185.195 119.578C189.529 124.522 190.578 131.541 187.876 137.535L172.684 171.24C170.775 175.476 167.195 178.73 162.797 180.228L78.1682 209.056C69.5364 211.996 67.9965 200.564 74.7755 194.464L106.118 166.266C107.665 164.874 109.872 164.614 111.95 164.727C117.651 165.037 122.524 160.668 122.834 154.968C123.145 149.268 118.775 144.395 113.074 144.084C107.374 143.774 102.502 148.144 102.192 153.844C102.046 156.512 101.581 159.383 99.5974 161.174L68.0837 189.622C62.22 194.915 52.6584 192.521 55.5237 185.159L87.6096 102.725C89.0522 99.0186 91.7649 95.9451 95.2629 94.0529L129.305 75.6378Z" fill="var(--fill-0, white)"/>
</g>
</svg>
