<svg preserveAspectRatio="none" width="100%" height="100%" overflow="visible" style="display: block;" viewBox="0 0 166.099 181" fill="none" xmlns="http://www.w3.org/2000/svg">
<g id="Group 2521">
<path id="Rectangle 705" d="M57.9131 107.025V161.698C57.9131 170.425 50.839 177.5 42.1123 177.5C33.3855 177.5 26.3105 170.425 26.3105 161.698V107.025H57.9131Z" fill="var(--fill-0, white)" stroke="var(--stroke-0, white)" stroke-width="7"/>
<path id="Rectangle 704" d="M21.6406 42.688H71.9512V107.044H21.6406C11.6219 107.044 3.50011 98.9226 3.5 88.9038V60.8286C3.50017 50.8099 11.6219 42.6882 21.6406 42.688Z" fill="var(--fill-0, white)" stroke="var(--stroke-0, white)" stroke-width="7"/>
<path id="Vector 45" d="M152.55 4.81071L76.5145 41.21C74.0774 42.3766 72.5264 44.8387 72.5264 47.5406V102.621C72.5264 105.21 73.9519 107.589 76.2352 108.81L152.271 149.472C156.946 151.973 162.599 148.585 162.599 143.283V11.1414C162.599 5.97637 157.209 2.58052 152.55 4.81071Z" fill="var(--fill-0, white)" stroke="var(--stroke-0, white)" stroke-width="7"/>
</g>
</svg>
