<svg xmlns="http://www.w3.org/2000/svg" width="391" height="391" viewBox="0 0 391 391" fill="none"><metadata><rdf:RDF xmlns:rdf="http://www.w3.org/1999/02/22-rdf-syntax-ns#" xmlns:dc="http://purl.org/dc/elements/1.1/"><rdf:Description><dc:creator>RealFaviconGenerator</dc:creator><dc:source>https://realfavicongenerator.net</dc:source></rdf:Description></rdf:RDF></metadata><g clip-path="url(#clip0_1509_1031)">
<rect width="390.844" height="390.773" rx="72" fill="#06050C"></rect>
<g filter="url(#filter0_f_1509_1031)">
<ellipse cx="195" cy="201" rx="148" ry="112" transform="rotate(90 195 201)" fill="#250CB1"></ellipse>
</g>
<g filter="url(#filter1_f_1509_1031)">
<ellipse cx="201" cy="440" rx="118" ry="50" fill="#3E349E"></ellipse>
</g>
<path d="M194.848 49.6475C267.195 48.2344 339.745 97.8239 326.669 202.808C325.089 215.489 320.525 227.292 313.931 238.008L318.309 242.336C347.144 267.988 346.844 292.74 335.431 305.04C304.34 335.642 264.388 287.189 264.388 287.189L264.477 288.569C266.236 317.451 261.619 338.881 238.555 341.041C214.674 343.277 204.108 331.004 194.848 305.039C185.588 331.004 175.024 343.278 151.142 341.042C127.713 338.848 123.32 316.766 125.309 287.189V287.187L125.308 287.189C125.207 287.311 85.3182 335.602 54.2663 305.039C42.8534 292.739 42.5525 267.988 71.3874 242.336L75.8044 238.069C69.1903 227.337 64.6116 215.513 63.029 202.808C49.9527 97.8242 122.502 48.2346 194.848 49.6475Z" fill="url(#paint0_radial_1509_1031)"></path>
<g filter="url(#filter2_i_1509_1031)">
<path d="M145.322 168.607C128.269 168.607 114.445 182.44 114.445 199.503C114.445 208.642 118.411 216.854 124.715 222.511C133.546 216.932 144.008 213.704 155.224 213.704C160.847 213.704 166.281 214.516 171.415 216.028C174.444 211.249 176.198 205.581 176.198 199.503C176.198 182.44 162.374 168.607 145.322 168.607Z" fill="url(#paint1_linear_1509_1031)"></path>
</g>
<mask id="mask0_1509_1031" style="mask-type:alpha" maskUnits="userSpaceOnUse" x="114" y="168" width="63" height="55">
<path d="M145.322 168.607C128.269 168.607 114.445 182.44 114.445 199.503C114.445 208.642 118.411 216.854 124.715 222.511C133.546 216.932 144.008 213.704 155.224 213.704C160.847 213.704 166.281 214.516 171.415 216.028C174.444 211.249 176.198 205.581 176.198 199.503C176.198 182.44 162.374 168.607 145.322 168.607Z" fill="white"></path>
</mask>
<g mask="url(#mask0_1509_1031)">
<circle cx="25.7913" cy="25.7913" r="25.7913" transform="matrix(-1 0 0 1 171.256 173.241)" fill="url(#paint2_radial_1509_1031)"></circle>
</g>
<g filter="url(#filter3_i_1509_1031)">
<path d="M245.074 168.607C262.127 168.607 275.951 182.44 275.951 199.503C275.951 208.642 271.985 216.854 265.681 222.511C256.85 216.932 246.388 213.704 235.172 213.704C229.549 213.704 224.115 214.516 218.981 216.028C215.952 211.249 214.198 205.581 214.198 199.503C214.198 182.44 228.022 168.607 245.074 168.607Z" fill="url(#paint3_linear_1509_1031)"></path>
</g>
<mask id="mask1_1509_1031" style="mask-type:alpha" maskUnits="userSpaceOnUse" x="214" y="168" width="62" height="55">
<path d="M245.074 168.607C262.127 168.607 275.951 182.44 275.951 199.503C275.951 208.642 271.985 216.854 265.681 222.511C256.85 216.932 246.388 213.704 235.172 213.704C229.549 213.704 224.115 214.516 218.981 216.028C215.952 211.249 214.198 205.581 214.198 199.503C214.198 182.44 228.022 168.607 245.074 168.607Z" fill="white"></path>
</mask>
<g mask="url(#mask1_1509_1031)">
<circle cx="244.931" cy="199.032" r="25.7913" fill="url(#paint4_radial_1509_1031)"></circle>
</g>
<circle opacity="0.8" cx="252.935" cy="187.309" r="3.90556" fill="white"></circle>
<circle opacity="0.6" cx="255.991" cy="199.195" r="2.20749" fill="white"></circle>
<circle opacity="0.4" cx="246.482" cy="211.082" r="1.52826" fill="white"></circle>
<circle opacity="0.8" cx="3.90556" cy="3.90556" r="3.90556" transform="matrix(-1 0 0 1 139.126 183.403)" fill="white"></circle>
<circle opacity="0.6" cx="2.20749" cy="2.20749" r="2.20749" transform="matrix(-1 0 0 1 134.372 196.988)" fill="white"></circle>
<circle opacity="0.4" cx="1.52826" cy="1.52826" r="1.52826" transform="matrix(-1 0 0 1 143.201 209.554)" fill="white"></circle>
</g><defs>
<filter id="filter0_f_1509_1031" x="-73.8" y="-103.8" width="537.6" height="609.6" filterUnits="userSpaceOnUse" color-interpolation-filters="sRGB">
<feFlood flood-opacity="0" result="BackgroundImageFix"></feFlood>
<feBlend mode="normal" in="SourceGraphic" in2="BackgroundImageFix" result="shape"></feBlend>
<feGaussianBlur stdDeviation="78.4" result="effect1_foregroundBlur_1509_1031"></feGaussianBlur>
</filter>
<filter id="filter1_f_1509_1031" x="-73.8" y="233.2" width="549.6" height="413.6" filterUnits="userSpaceOnUse" color-interpolation-filters="sRGB">
<feFlood flood-opacity="0" result="BackgroundImageFix"></feFlood>
<feBlend mode="normal" in="SourceGraphic" in2="BackgroundImageFix" result="shape"></feBlend>
<feGaussianBlur stdDeviation="78.4" result="effect1_foregroundBlur_1509_1031"></feGaussianBlur>
</filter>
<filter id="filter2_i_1509_1031" x="114.445" y="168.607" width="61.7529" height="55.1388" filterUnits="userSpaceOnUse" color-interpolation-filters="sRGB">
<feFlood flood-opacity="0" result="BackgroundImageFix"></feFlood>
<feBlend mode="normal" in="SourceGraphic" in2="BackgroundImageFix" result="shape"></feBlend>
<feColorMatrix in="SourceAlpha" type="matrix" values="0 0 0 0 0 0 0 0 0 0 0 0 0 0 0 0 0 0 127 0" result="hardAlpha"></feColorMatrix>
<feOffset dy="1.54439"></feOffset>
<feGaussianBlur stdDeviation="0.617755"></feGaussianBlur>
<feComposite in2="hardAlpha" operator="arithmetic" k2="-1" k3="1"></feComposite>
<feColorMatrix type="matrix" values="0 0 0 0 0 0 0 0 0 0 0 0 0 0 0 0 0 0 0.25 0"></feColorMatrix>
<feBlend mode="normal" in2="shape" result="effect1_innerShadow_1509_1031"></feBlend>
</filter>
<filter id="filter3_i_1509_1031" x="214.198" y="168.607" width="61.7529" height="55.1388" filterUnits="userSpaceOnUse" color-interpolation-filters="sRGB">
<feFlood flood-opacity="0" result="BackgroundImageFix"></feFlood>
<feBlend mode="normal" in="SourceGraphic" in2="BackgroundImageFix" result="shape"></feBlend>
<feColorMatrix in="SourceAlpha" type="matrix" values="0 0 0 0 0 0 0 0 0 0 0 0 0 0 0 0 0 0 127 0" result="hardAlpha"></feColorMatrix>
<feOffset dy="1.54439"></feOffset>
<feGaussianBlur stdDeviation="0.617755"></feGaussianBlur>
<feComposite in2="hardAlpha" operator="arithmetic" k2="-1" k3="1"></feComposite>
<feColorMatrix type="matrix" values="0 0 0 0 0 0 0 0 0 0 0 0 0 0 0 0 0 0 0.25 0"></feColorMatrix>
<feBlend mode="normal" in2="shape" result="effect1_innerShadow_1509_1031"></feBlend>
</filter>
<radialGradient id="paint0_radial_1509_1031" cx="0" cy="0" r="1" gradientTransform="matrix(-265.62 320.114 267.464 463.408 308.987 49.6183)" gradientUnits="userSpaceOnUse">
<stop stop-color="#9A94E5"></stop>
<stop offset="0.504808" stop-color="#5E51F1"></stop>
<stop offset="1" stop-color="#362F8B"></stop>
</radialGradient>
<linearGradient id="paint1_linear_1509_1031" x1="145.322" y1="205.209" x2="145.322" y2="224.205" gradientUnits="userSpaceOnUse">
<stop stop-color="white"></stop>
<stop offset="1" stop-color="#999999"></stop>
</linearGradient>
<radialGradient id="paint2_radial_1509_1031" cx="0" cy="0" r="1" gradientUnits="userSpaceOnUse" gradientTransform="translate(25.7913 25.7913) rotate(90.215) scale(38.1466)">
<stop offset="0.544931" stop-color="#161616"></stop>
<stop offset="1" stop-color="#575757"></stop>
</radialGradient>
<linearGradient id="paint3_linear_1509_1031" x1="245.074" y1="205.209" x2="245.074" y2="224.205" gradientUnits="userSpaceOnUse">
<stop stop-color="white"></stop>
<stop offset="1" stop-color="#999999"></stop>
</linearGradient>
<radialGradient id="paint4_radial_1509_1031" cx="0" cy="0" r="1" gradientUnits="userSpaceOnUse" gradientTransform="translate(244.931 199.032) rotate(90.215) scale(38.1466)">
<stop offset="0.544931" stop-color="#161616"></stop>
<stop offset="1" stop-color="#575757"></stop>
</radialGradient>
<clipPath id="clip0_1509_1031">
<rect width="390.844" height="390.773" rx="72" fill="white"></rect>
</clipPath>
</defs></svg>